<svg xmlns="http://www.w3.org/2000/svg" width="100%" viewBox="0 0 1000 230" role="img" aria-labelledby="signal-title signal-description">
  <title id="signal-title">Makaren Signal history</title>
  <desc id="signal-description">A 52-week contribution waveform with peak and current-week markers.</desc>
  <style>
      :root { color-scheme: light; }
      .sans { font-family: -apple-system, BlinkMacSystemFont, 'Segoe UI', sans-serif; }
      .mono { font-family: ui-monospace, SFMono-Regular, Consolas, 'Liberation Mono', monospace; }
      .label { fill: #5E6B78; font-size: 11px; letter-spacing: 2px; }
      .copy { fill: #17212B; }
      .muted { fill: #5E6B78; }
      .signal { fill: #087F8C; }
      .line { stroke: #CBD5DD; }
      .final-opacity { opacity: var(--final-opacity, 1); }
      .reveal { animation: reveal var(--reveal-duration, .32s) ease-out var(--reveal-delay, 0s) both; }
      .draw { animation: draw var(--draw-duration, 1.5s) ease-out var(--draw-delay, 0s) both; }
      .connection { vector-effect: non-scaling-stroke; }
      @keyframes reveal { from { opacity: 0; } to { opacity: var(--final-opacity, 1); } }
      @keyframes draw { from { stroke-dashoffset: 1; } to { stroke-dashoffset: 0; } }
      @media (prefers-reduced-motion: reduce) {
        .motion { display: none !important; }
        .reveal { animation: none !important; opacity: var(--final-opacity, 1) !important; }
        .draw { animation: none !important; stroke-dashoffset: 0 !important; }
      }

      .motion { display: none !important; }
      .reveal { animation: none !important; opacity: var(--final-opacity, 1) !important; }
      .draw { animation: none !important; stroke-dashoffset: 0 !important; }

    </style>
  <rect width="1000" height="230" fill="#F7F9FB" rx="12"/>
<g id="history-static"><text class="sans copy" x="48" y="48" font-size="25" font-weight="650" letter-spacing="1">SIGNAL HISTORY</text><text class="mono muted" x="952" y="46" font-size="9" text-anchor="end" letter-spacing="1">52 WEEKS / ROBUST LOG SCALE</text><line id="history-baseline" x1="62.00" y1="174" x2="938.00" y2="174" stroke="#CBD5DD"/><line class="month-tick" x1="62.00" y1="179" x2="62.00" y2="184" stroke="#CBD5DD"/><text class="mono muted month-label" x="62.00" y="200" font-size="8">JUL</text><line class="month-tick" x1="79.18" y1="179" x2="79.18" y2="184" stroke="#CBD5DD"/><text class="mono muted month-label" x="79.18" y="200" font-size="8">AUG</text><line class="month-tick" x1="165.06" y1="179" x2="165.06" y2="184" stroke="#CBD5DD"/><text class="mono muted month-label" x="165.06" y="200" font-size="8">SEP</text><line class="month-tick" x1="233.76" y1="179" x2="233.76" y2="184" stroke="#CBD5DD"/><text class="mono muted month-label" x="233.76" y="200" font-size="8">OCT</text><line class="month-tick" x1="319.65" y1="179" x2="319.65" y2="184" stroke="#CBD5DD"/><text class="mono muted month-label" x="319.65" y="200" font-size="8">NOV</text><line class="month-tick" x1="388.35" y1="179" x2="388.35" y2="184" stroke="#CBD5DD"/><text class="mono muted month-label" x="388.35" y="200" font-size="8">DEC</text><line class="month-tick" x1="457.06" y1="179" x2="457.06" y2="184" stroke="#CBD5DD"/><text class="mono muted month-label" x="457.06" y="200" font-size="8">JAN</text><line class="month-tick" x1="542.94" y1="179" x2="542.94" y2="184" stroke="#CBD5DD"/><text class="mono muted month-label" x="542.94" y="200" font-size="8">FEB</text><line class="month-tick" x1="611.65" y1="179" x2="611.65" y2="184" stroke="#CBD5DD"/><text class="mono muted month-label" x="611.65" y="200" font-size="8">MAR</text><line class="month-tick" x1="680.35" y1="179" x2="680.35" y2="184" stroke="#CBD5DD"/><text class="mono muted month-label" x="680.35" y="200" font-size="8">APR</text><line class="month-tick" x1="749.06" y1="179" x2="749.06" y2="184" stroke="#CBD5DD"/><text class="mono muted month-label" x="749.06" y="200" font-size="8">MAY</text><line class="month-tick" x1="834.94" y1="179" x2="834.94" y2="184" stroke="#CBD5DD"/><text class="mono muted month-label" x="834.94" y="200" font-size="8">JUN</text><line class="month-tick" x1="903.65" y1="179" x2="903.65" y2="184" stroke="#CBD5DD"/><text class="mono muted month-label" x="903.65" y="200" font-size="8">JUL</text></g><g id="history-data" data-animation="cyclic-reveal" data-build-duration="3.5s" data-hold-duration="5.0s" data-collapse-duration="1.2s" data-pause-duration="0.3s" data-cycle="10.0s"><path id="history-area" d="M 62.00 174.00 C 64.86 174.00 73.45 174.00 79.18 174.00 C 84.90 174.00 90.63 174.00 96.35 174.00 C 102.08 174.00 107.80 174.00 113.53 174.00 C 119.25 174.00 124.98 174.00 130.71 174.00 C 136.43 174.00 142.16 174.00 147.88 174.00 C 153.61 174.00 159.33 174.00 165.06 174.00 C 170.78 174.00 176.51 174.00 182.24 174.00 C 187.96 174.00 193.69 174.00 199.41 174.00 C 205.14 174.00 210.86 174.00 216.59 174.00 C 222.31 174.00 228.04 174.00 233.76 174.00 C 239.49 174.00 245.22 174.00 250.94 174.00 C 256.67 174.00 262.39 174.00 268.12 174.00 C 273.84 174.00 279.57 174.00 285.29 174.00 C 291.02 174.00 296.75 174.00 302.47 174.00 C 308.20 174.00 313.92 174.00 319.65 174.00 C 325.37 174.00 331.10 174.00 336.82 174.00 C 342.55 174.00 348.27 174.00 354.00 174.00 C 359.73 158.67 365.45 87.27 371.18 82.00 C 376.90 82.00 382.63 132.33 388.35 142.40 C 394.08 142.40 399.80 142.40 405.53 142.40 C 411.25 141.02 416.98 136.58 422.71 134.13 C 428.43 131.68 434.16 127.71 439.88 127.71 C 445.61 129.09 451.33 142.40 457.06 142.40 C 462.78 137.47 468.51 100.54 474.24 98.10 C 479.96 98.10 485.69 124.39 491.41 127.71 C 497.14 127.71 502.86 124.17 508.59 118.03 C 514.31 111.89 520.04 90.87 525.76 90.87 C 531.49 90.87 537.22 118.03 542.94 118.03 C 548.67 116.55 554.39 85.96 560.12 82.00 C 565.84 82.00 571.57 94.26 577.29 94.26 C 583.02 94.26 588.75 82.00 594.47 82.00 C 600.20 87.58 605.92 122.34 611.65 127.71 C 617.37 127.71 623.10 119.77 628.82 114.19 C 634.55 108.62 640.27 94.26 646.00 94.26 C 651.73 94.90 657.45 111.39 663.18 118.03 C 668.90 124.68 674.63 124.80 680.35 134.13 C 686.08 143.46 691.80 174.00 697.53 174.00 C 703.25 172.93 708.98 127.71 714.71 127.71 C 720.43 127.71 726.16 166.28 731.88 174.00 C 737.61 174.00 743.33 174.00 749.06 174.00 C 754.78 168.73 760.51 142.40 766.24 142.40 C 771.96 142.40 777.69 174.00 783.41 174.00 C 789.14 168.23 794.86 113.04 800.59 107.77 C 806.31 107.77 812.04 136.63 817.76 142.40 C 823.49 142.40 829.22 142.40 834.94 142.40 C 840.67 136.63 846.39 116.09 852.12 107.77 C 857.84 99.46 863.57 95.83 869.29 92.51 C 875.02 89.19 880.75 89.59 886.47 87.84 C 892.20 86.09 897.92 82.97 903.65 82.00 C 909.37 82.00 915.10 82.00 920.82 82.00 C 926.55 82.00 935.14 82.00 938.00 82.00 L 938.00 174 L 62.00 174 Z" fill="#087F8C" opacity="0.055"/><path id="history-wave" data-week-count="52" d="M 62.00 174.00 C 64.86 174.00 73.45 174.00 79.18 174.00 C 84.90 174.00 90.63 174.00 96.35 174.00 C 102.08 174.00 107.80 174.00 113.53 174.00 C 119.25 174.00 124.98 174.00 130.71 174.00 C 136.43 174.00 142.16 174.00 147.88 174.00 C 153.61 174.00 159.33 174.00 165.06 174.00 C 170.78 174.00 176.51 174.00 182.24 174.00 C 187.96 174.00 193.69 174.00 199.41 174.00 C 205.14 174.00 210.86 174.00 216.59 174.00 C 222.31 174.00 228.04 174.00 233.76 174.00 C 239.49 174.00 245.22 174.00 250.94 174.00 C 256.67 174.00 262.39 174.00 268.12 174.00 C 273.84 174.00 279.57 174.00 285.29 174.00 C 291.02 174.00 296.75 174.00 302.47 174.00 C 308.20 174.00 313.92 174.00 319.65 174.00 C 325.37 174.00 331.10 174.00 336.82 174.00 C 342.55 174.00 348.27 174.00 354.00 174.00 C 359.73 158.67 365.45 87.27 371.18 82.00 C 376.90 82.00 382.63 132.33 388.35 142.40 C 394.08 142.40 399.80 142.40 405.53 142.40 C 411.25 141.02 416.98 136.58 422.71 134.13 C 428.43 131.68 434.16 127.71 439.88 127.71 C 445.61 129.09 451.33 142.40 457.06 142.40 C 462.78 137.47 468.51 100.54 474.24 98.10 C 479.96 98.10 485.69 124.39 491.41 127.71 C 497.14 127.71 502.86 124.17 508.59 118.03 C 514.31 111.89 520.04 90.87 525.76 90.87 C 531.49 90.87 537.22 118.03 542.94 118.03 C 548.67 116.55 554.39 85.96 560.12 82.00 C 565.84 82.00 571.57 94.26 577.29 94.26 C 583.02 94.26 588.75 82.00 594.47 82.00 C 600.20 87.58 605.92 122.34 611.65 127.71 C 617.37 127.71 623.10 119.77 628.82 114.19 C 634.55 108.62 640.27 94.26 646.00 94.26 C 651.73 94.90 657.45 111.39 663.18 118.03 C 668.90 124.68 674.63 124.80 680.35 134.13 C 686.08 143.46 691.80 174.00 697.53 174.00 C 703.25 172.93 708.98 127.71 714.71 127.71 C 720.43 127.71 726.16 166.28 731.88 174.00 C 737.61 174.00 743.33 174.00 749.06 174.00 C 754.78 168.73 760.51 142.40 766.24 142.40 C 771.96 142.40 777.69 174.00 783.41 174.00 C 789.14 168.23 794.86 113.04 800.59 107.77 C 806.31 107.77 812.04 136.63 817.76 142.40 C 823.49 142.40 829.22 142.40 834.94 142.40 C 840.67 136.63 846.39 116.09 852.12 107.77 C 857.84 99.46 863.57 95.83 869.29 92.51 C 875.02 89.19 880.75 89.59 886.47 87.84 C 892.20 86.09 897.92 82.97 903.65 82.00 C 909.37 82.00 915.10 82.00 920.82 82.00 C 926.55 82.00 935.14 82.00 938.00 82.00" fill="none" stroke="#087F8C" stroke-width="2" stroke-linecap="round" stroke-linejoin="round"/><circle class="weekly-point" data-week="0" data-total="0" data-active-days="0" cx="62.00" cy="174.00" r="1.6" fill="#087F8C" opacity="0.5"/><circle class="weekly-point" data-week="1" data-total="0" data-active-days="0" cx="79.18" cy="174.00" r="1.6" fill="#087F8C" opacity="0.5"/><circle class="weekly-point" data-week="2" data-total="0" data-active-days="0" cx="96.35" cy="174.00" r="1.6" fill="#087F8C" opacity="0.5"/><circle class="weekly-point" data-week="3" data-total="0" data-active-days="0" cx="113.53" cy="174.00" r="1.6" fill="#087F8C" opacity="0.5"/><circle class="weekly-point" data-week="4" data-total="0" data-active-days="0" cx="130.71" cy="174.00" r="1.6" fill="#087F8C" opacity="0.5"/><circle class="weekly-point" data-week="5" data-total="0" data-active-days="0" cx="147.88" cy="174.00" r="1.6" fill="#087F8C" opacity="0.5"/><circle class="weekly-point" data-week="6" data-total="0" data-active-days="0" cx="165.06" cy="174.00" r="1.6" fill="#087F8C" opacity="0.5"/><circle class="weekly-point" data-week="7" data-total="0" data-active-days="0" cx="182.24" cy="174.00" r="1.6" fill="#087F8C" opacity="0.5"/><circle class="weekly-point" data-week="8" data-total="0" data-active-days="0" cx="199.41" cy="174.00" r="1.6" fill="#087F8C" opacity="0.5"/><circle class="weekly-point" data-week="9" data-total="0" data-active-days="0" cx="216.59" cy="174.00" r="1.6" fill="#087F8C" opacity="0.5"/><circle class="weekly-point" data-week="10" data-total="0" data-active-days="0" cx="233.76" cy="174.00" r="1.6" fill="#087F8C" opacity="0.5"/><circle class="weekly-point" data-week="11" data-total="0" data-active-days="0" cx="250.94" cy="174.00" r="1.6" fill="#087F8C" opacity="0.5"/><circle class="weekly-point" data-week="12" data-total="0" data-active-days="0" cx="268.12" cy="174.00" r="1.6" fill="#087F8C" opacity="0.5"/><circle class="weekly-point" data-week="13" data-total="0" data-active-days="0" cx="285.29" cy="174.00" r="1.6" fill="#087F8C" opacity="0.5"/><circle class="weekly-point" data-week="14" data-total="0" data-active-days="0" cx="302.47" cy="174.00" r="1.6" fill="#087F8C" opacity="0.5"/><circle class="weekly-point" data-week="15" data-total="0" data-active-days="0" cx="319.65" cy="174.00" r="1.6" fill="#087F8C" opacity="0.5"/><circle class="weekly-point" data-week="16" data-total="0" data-active-days="0" cx="336.82" cy="174.00" r="1.6" fill="#087F8C" opacity="0.5"/><circle class="weekly-point" data-week="17" data-total="0" data-active-days="0" cx="354.00" cy="174.00" r="1.6" fill="#087F8C" opacity="0.5"/><circle class="weekly-point" data-week="18" data-total="24" data-active-days="4" cx="371.18" cy="82.00" r="1.6" fill="#087F8C" opacity="0.5"/><circle class="weekly-point" data-week="19" data-total="2" data-active-days="1" cx="388.35" cy="142.40" r="1.6" fill="#087F8C" opacity="0.5"/><circle class="weekly-point" data-week="20" data-total="2" data-active-days="2" cx="405.53" cy="142.40" r="1.6" fill="#087F8C" opacity="0.5"/><circle class="weekly-point" data-week="21" data-total="3" data-active-days="3" cx="422.71" cy="134.13" r="1.6" fill="#087F8C" opacity="0.5"/><circle class="weekly-point" data-week="22" data-total="4" data-active-days="2" cx="439.88" cy="127.71" r="1.6" fill="#087F8C" opacity="0.5"/><circle class="weekly-point" data-week="23" data-total="2" data-active-days="2" cx="457.06" cy="142.40" r="1.6" fill="#087F8C" opacity="0.5"/><circle class="weekly-point" data-week="24" data-total="13" data-active-days="4" cx="474.24" cy="98.10" r="1.6" fill="#087F8C" opacity="0.5"/><circle class="weekly-point" data-week="25" data-total="4" data-active-days="2" cx="491.41" cy="127.71" r="1.6" fill="#087F8C" opacity="0.5"/><circle class="weekly-point" data-week="26" data-total="6" data-active-days="3" cx="508.59" cy="118.03" r="1.6" fill="#087F8C" opacity="0.5"/><circle class="weekly-point" data-week="27" data-total="17" data-active-days="6" cx="525.76" cy="90.87" r="1.6" fill="#087F8C" opacity="0.5"/><circle class="weekly-point" data-week="28" data-total="6" data-active-days="3" cx="542.94" cy="118.03" r="1.6" fill="#087F8C" opacity="0.5"/><circle class="weekly-point" data-week="29" data-total="37" data-active-days="6" cx="560.12" cy="82.00" r="1.6" fill="#087F8C" opacity="0.5"/><circle class="weekly-point" data-week="30" data-total="15" data-active-days="6" cx="577.29" cy="94.26" r="1.6" fill="#087F8C" opacity="0.5"/><circle class="weekly-point" data-week="31" data-total="34" data-active-days="4" cx="594.47" cy="82.00" r="1.6" fill="#087F8C" opacity="0.5"/><circle class="weekly-point" data-week="32" data-total="4" data-active-days="2" cx="611.65" cy="127.71" r="1.6" fill="#087F8C" opacity="0.5"/><circle class="weekly-point" data-week="33" data-total="7" data-active-days="3" cx="628.82" cy="114.19" r="1.6" fill="#087F8C" opacity="0.5"/><circle class="weekly-point" data-week="34" data-total="15" data-active-days="3" cx="646.00" cy="94.26" r="1.6" fill="#087F8C" opacity="0.5"/><circle class="weekly-point" data-week="35" data-total="6" data-active-days="2" cx="663.18" cy="118.03" r="1.6" fill="#087F8C" opacity="0.5"/><circle class="weekly-point" data-week="36" data-total="3" data-active-days="3" cx="680.35" cy="134.13" r="1.6" fill="#087F8C" opacity="0.5"/><circle class="weekly-point" data-week="37" data-total="0" data-active-days="0" cx="697.53" cy="174.00" r="1.6" fill="#087F8C" opacity="0.5"/><circle class="weekly-point" data-week="38" data-total="4" data-active-days="2" cx="714.71" cy="127.71" r="1.6" fill="#087F8C" opacity="0.5"/><circle class="weekly-point" data-week="39" data-total="0" data-active-days="0" cx="731.88" cy="174.00" r="1.6" fill="#087F8C" opacity="0.5"/><circle class="weekly-point" data-week="40" data-total="0" data-active-days="0" cx="749.06" cy="174.00" r="1.6" fill="#087F8C" opacity="0.5"/><circle class="weekly-point" data-week="41" data-total="2" data-active-days="1" cx="766.24" cy="142.40" r="1.6" fill="#087F8C" opacity="0.5"/><circle class="weekly-point" data-week="42" data-total="0" data-active-days="0" cx="783.41" cy="174.00" r="1.6" fill="#087F8C" opacity="0.5"/><circle class="weekly-point" data-week="43" data-total="9" data-active-days="2" cx="800.59" cy="107.77" r="1.6" fill="#087F8C" opacity="0.5"/><circle class="weekly-point" data-week="44" data-total="2" data-active-days="2" cx="817.76" cy="142.40" r="1.6" fill="#087F8C" opacity="0.5"/><circle class="weekly-point" data-week="45" data-total="2" data-active-days="2" cx="834.94" cy="142.40" r="1.6" fill="#087F8C" opacity="0.5"/><circle class="weekly-point" data-week="46" data-total="9" data-active-days="4" cx="852.12" cy="107.77" r="1.6" fill="#087F8C" opacity="0.5"/><circle class="weekly-point" data-week="47" data-total="16" data-active-days="3" cx="869.29" cy="92.51" r="1.6" fill="#087F8C" opacity="0.5"/><circle class="weekly-point" data-week="48" data-total="19" data-active-days="3" cx="886.47" cy="87.84" r="1.6" fill="#087F8C" opacity="0.5"/><circle class="weekly-point" data-week="49" data-total="49" data-active-days="6" cx="903.65" cy="82.00" r="1.6" fill="#087F8C" opacity="0.5"/><circle class="weekly-point" data-week="50" data-total="89" data-active-days="6" cx="920.82" cy="82.00" r="1.6" fill="#087F8C" opacity="0.5"/><circle class="weekly-point" data-week="51" data-total="55" data-active-days="5" cx="938.00" cy="82.00" r="1.6" fill="#087F8C" opacity="0.5"/><g id="history-peak-marker"><circle cx="920.82" cy="82.00" r="4" fill="#F7F9FB" stroke="#087F8C" stroke-width="1.4"/><text class="mono signal" x="920.82" y="76.00" font-size="8" text-anchor="middle">PEAK 89</text></g><g id="history-current-marker"><line x1="938.00" y1="82.00" x2="938.00" y2="174" stroke="#55B8C1" stroke-dasharray="2 4"/><text class="mono muted" x="938.00" y="216" font-size="8" text-anchor="end">CURRENT</text></g></g></svg>
