<svg xmlns="http://www.w3.org/2000/svg" width="100%" viewBox="0 0 360 300" role="img" aria-labelledby="signal-title signal-description">
  <title id="signal-title">Makaren Signal history</title>
  <desc id="signal-description">A 52-week contribution waveform with peak and current-week markers.</desc>
  <style>
      :root { color-scheme: light; }
      .sans { font-family: -apple-system, BlinkMacSystemFont, 'Segoe UI', sans-serif; }
      .mono { font-family: ui-monospace, SFMono-Regular, Consolas, 'Liberation Mono', monospace; }
      .label { fill: #5E6B78; font-size: 11px; letter-spacing: 2px; }
      .copy { fill: #17212B; }
      .muted { fill: #5E6B78; }
      .signal { fill: #087F8C; }
      .line { stroke: #CBD5DD; }
      .final-opacity { opacity: var(--final-opacity, 1); }
      .reveal { animation: reveal var(--reveal-duration, .32s) ease-out var(--reveal-delay, 0s) both; }
      .draw { animation: draw var(--draw-duration, 1.5s) ease-out var(--draw-delay, 0s) both; }
      .connection { vector-effect: non-scaling-stroke; }
      @keyframes reveal { from { opacity: 0; } to { opacity: var(--final-opacity, 1); } }
      @keyframes draw { from { stroke-dashoffset: 1; } to { stroke-dashoffset: 0; } }
      @media (prefers-reduced-motion: reduce) {
        .motion { display: none !important; }
        .reveal { animation: none !important; opacity: var(--final-opacity, 1) !important; }
        .draw { animation: none !important; stroke-dashoffset: 0 !important; }
      }

    </style>
  <rect width="360" height="300" fill="#F7F9FB" rx="12"/>
<g id="history-static"><text class="sans copy" x="24" y="46" font-size="23" font-weight="650" letter-spacing="1">SIGNAL HISTORY</text><text class="mono muted" x="336" y="68" font-size="9" text-anchor="end" letter-spacing="1">52 WEEKS / ROBUST LOG SCALE</text><line id="history-baseline" x1="28.00" y1="218" x2="332.00" y2="218" stroke="#CBD5DD"/><line class="month-tick" x1="28.00" y1="223" x2="28.00" y2="228" stroke="#CBD5DD"/><text class="mono muted month-label" x="28.00" y="244" font-size="8">SEP</text><line class="month-tick" x1="45.88" y1="223" x2="45.88" y2="228" stroke="#CBD5DD"/><line class="month-tick" x1="69.73" y1="223" x2="69.73" y2="228" stroke="#CBD5DD"/><text class="mono muted month-label" x="69.73" y="244" font-size="8">NOV</text><line class="month-tick" x1="99.53" y1="223" x2="99.53" y2="228" stroke="#CBD5DD"/><line class="month-tick" x1="123.37" y1="223" x2="123.37" y2="228" stroke="#CBD5DD"/><text class="mono muted month-label" x="123.37" y="244" font-size="8">JAN</text><line class="month-tick" x1="153.18" y1="223" x2="153.18" y2="228" stroke="#CBD5DD"/><line class="month-tick" x1="177.02" y1="223" x2="177.02" y2="228" stroke="#CBD5DD"/><text class="mono muted month-label" x="177.02" y="244" font-size="8">MAR</text><line class="month-tick" x1="200.86" y1="223" x2="200.86" y2="228" stroke="#CBD5DD"/><line class="month-tick" x1="224.71" y1="223" x2="224.71" y2="228" stroke="#CBD5DD"/><text class="mono muted month-label" x="224.71" y="244" font-size="8">MAY</text><line class="month-tick" x1="254.51" y1="223" x2="254.51" y2="228" stroke="#CBD5DD"/><line class="month-tick" x1="278.35" y1="223" x2="278.35" y2="228" stroke="#CBD5DD"/><text class="mono muted month-label" x="278.35" y="244" font-size="8">JUL</text><line class="month-tick" x1="302.20" y1="223" x2="302.20" y2="228" stroke="#CBD5DD"/><line class="month-tick" x1="332.00" y1="223" x2="332.00" y2="228" stroke="#CBD5DD"/><text class="mono muted month-label" x="332.00" y="244" font-size="8">SEP</text></g><defs>
              <clipPath id="history-reveal-clip" clipPathUnits="userSpaceOnUse">
                <rect id="history-reveal-window" x="28.00" y="70" width="0" height="230">
                  <animate id="history-reveal-width" attributeName="width" values="0;304.00;304.00;0;0" keyTimes="0;0.35;0.85;0.97;1" dur="10s" repeatCount="indefinite" calcMode="linear"/>
                </rect>
              </clipPath>
              <filter id="history-scan-glow" x="-100%" y="-20%" width="300%" height="140%"><feGaussianBlur stdDeviation="1.1" result="blur"/><feMerge><feMergeNode in="blur"/><feMergeNode in="SourceGraphic"/></feMerge></filter>
            </defs><g id="history-data" data-animation="cyclic-reveal" data-build-duration="3.5s" data-hold-duration="5.0s" data-collapse-duration="1.2s" data-pause-duration="0.3s" data-cycle="10.0s" clip-path="url(#history-reveal-clip)"><path id="history-area" d="M 28.00 218.00 C 28.99 218.00 31.97 218.00 33.96 218.00 C 35.95 218.00 37.93 218.00 39.92 218.00 C 41.91 218.00 43.90 218.00 45.88 218.00 C 47.87 218.00 49.86 218.00 51.84 218.00 C 53.83 218.00 55.82 218.00 57.80 218.00 C 59.79 218.00 61.78 218.00 63.76 218.00 C 65.75 218.00 67.74 218.00 69.73 218.00 C 71.71 218.00 73.70 218.00 75.69 218.00 C 77.67 218.00 79.66 218.00 81.65 218.00 C 83.63 218.00 85.62 218.00 87.61 218.00 C 89.59 200.88 91.58 115.31 93.57 115.31 C 95.56 115.31 97.54 206.59 99.53 218.00 C 101.52 218.00 103.50 192.13 105.49 183.77 C 107.48 175.41 109.46 169.35 111.45 167.85 C 113.44 167.85 115.42 174.81 117.41 174.81 C 119.40 174.81 121.39 174.36 123.37 167.85 C 125.36 161.35 127.35 135.77 129.33 135.77 C 131.32 136.93 133.31 171.90 135.29 174.81 C 137.28 174.81 139.27 160.41 141.25 153.21 C 143.24 146.01 145.23 132.22 147.22 131.61 C 149.20 131.61 151.19 149.54 153.18 149.54 C 155.16 145.27 157.15 107.91 159.14 106.00 C 161.12 106.00 163.11 138.08 165.10 138.08 C 167.08 138.08 169.07 106.00 171.06 106.00 C 173.05 113.61 175.03 178.01 177.02 183.77 C 179.01 183.77 180.99 147.77 182.98 140.57 C 184.97 140.57 186.95 140.57 188.94 140.57 C 190.93 143.37 192.92 151.66 194.90 157.37 C 196.89 163.07 198.88 170.41 200.86 174.81 C 202.85 179.21 204.84 182.28 206.82 183.77 C 208.81 183.77 210.80 183.77 212.78 183.77 C 214.77 189.47 216.76 212.29 218.75 218.00 C 220.73 218.00 222.72 218.00 224.71 218.00 C 226.69 212.29 228.68 183.77 230.67 183.77 C 232.65 183.77 234.64 218.00 236.63 218.00 C 238.61 211.75 240.60 153.45 242.59 146.26 C 244.58 146.26 246.56 166.45 248.55 174.81 C 250.54 183.16 252.52 196.40 254.51 196.40 C 256.50 189.54 258.48 142.93 260.47 133.62 C 262.46 133.62 264.44 140.57 266.43 140.57 C 268.42 139.08 270.41 130.42 272.39 124.66 C 274.38 118.90 276.37 109.11 278.35 106.00 C 280.34 106.00 282.33 106.00 284.31 106.00 C 286.30 106.00 288.29 106.00 290.27 106.00 C 292.26 106.00 294.25 106.00 296.24 106.00 C 298.22 106.83 300.21 106.40 302.20 111.00 C 304.18 115.61 306.17 128.69 308.16 133.62 C 310.14 138.55 312.13 140.57 314.12 140.57 C 316.10 140.24 318.09 132.41 320.08 131.61 C 322.07 131.61 324.05 131.61 326.04 135.77 C 328.03 150.17 331.01 204.30 332.00 218.00 L 332.00 218 L 28.00 218 Z" fill="#087F8C" opacity="0.055"/><path id="history-wave" data-week-count="52" d="M 28.00 218.00 C 28.99 218.00 31.97 218.00 33.96 218.00 C 35.95 218.00 37.93 218.00 39.92 218.00 C 41.91 218.00 43.90 218.00 45.88 218.00 C 47.87 218.00 49.86 218.00 51.84 218.00 C 53.83 218.00 55.82 218.00 57.80 218.00 C 59.79 218.00 61.78 218.00 63.76 218.00 C 65.75 218.00 67.74 218.00 69.73 218.00 C 71.71 218.00 73.70 218.00 75.69 218.00 C 77.67 218.00 79.66 218.00 81.65 218.00 C 83.63 218.00 85.62 218.00 87.61 218.00 C 89.59 200.88 91.58 115.31 93.57 115.31 C 95.56 115.31 97.54 206.59 99.53 218.00 C 101.52 218.00 103.50 192.13 105.49 183.77 C 107.48 175.41 109.46 169.35 111.45 167.85 C 113.44 167.85 115.42 174.81 117.41 174.81 C 119.40 174.81 121.39 174.36 123.37 167.85 C 125.36 161.35 127.35 135.77 129.33 135.77 C 131.32 136.93 133.31 171.90 135.29 174.81 C 137.28 174.81 139.27 160.41 141.25 153.21 C 143.24 146.01 145.23 132.22 147.22 131.61 C 149.20 131.61 151.19 149.54 153.18 149.54 C 155.16 145.27 157.15 107.91 159.14 106.00 C 161.12 106.00 163.11 138.08 165.10 138.08 C 167.08 138.08 169.07 106.00 171.06 106.00 C 173.05 113.61 175.03 178.01 177.02 183.77 C 179.01 183.77 180.99 147.77 182.98 140.57 C 184.97 140.57 186.95 140.57 188.94 140.57 C 190.93 143.37 192.92 151.66 194.90 157.37 C 196.89 163.07 198.88 170.41 200.86 174.81 C 202.85 179.21 204.84 182.28 206.82 183.77 C 208.81 183.77 210.80 183.77 212.78 183.77 C 214.77 189.47 216.76 212.29 218.75 218.00 C 220.73 218.00 222.72 218.00 224.71 218.00 C 226.69 212.29 228.68 183.77 230.67 183.77 C 232.65 183.77 234.64 218.00 236.63 218.00 C 238.61 211.75 240.60 153.45 242.59 146.26 C 244.58 146.26 246.56 166.45 248.55 174.81 C 250.54 183.16 252.52 196.40 254.51 196.40 C 256.50 189.54 258.48 142.93 260.47 133.62 C 262.46 133.62 264.44 140.57 266.43 140.57 C 268.42 139.08 270.41 130.42 272.39 124.66 C 274.38 118.90 276.37 109.11 278.35 106.00 C 280.34 106.00 282.33 106.00 284.31 106.00 C 286.30 106.00 288.29 106.00 290.27 106.00 C 292.26 106.00 294.25 106.00 296.24 106.00 C 298.22 106.83 300.21 106.40 302.20 111.00 C 304.18 115.61 306.17 128.69 308.16 133.62 C 310.14 138.55 312.13 140.57 314.12 140.57 C 316.10 140.24 318.09 132.41 320.08 131.61 C 322.07 131.61 324.05 131.61 326.04 135.77 C 328.03 150.17 331.01 204.30 332.00 218.00" fill="none" stroke="#087F8C" stroke-width="2" stroke-linecap="round" stroke-linejoin="round"/><circle class="weekly-point" data-week="0" data-total="0" data-active-days="0" cx="28.00" cy="218.00" r="1.6" fill="#087F8C" opacity="0.5"/><circle class="weekly-point" data-week="1" data-total="0" data-active-days="0" cx="33.96" cy="218.00" r="1.6" fill="#087F8C" opacity="0.5"/><circle class="weekly-point" data-week="2" data-total="0" data-active-days="0" cx="39.92" cy="218.00" r="1.6" fill="#087F8C" opacity="0.5"/><circle class="weekly-point" data-week="3" data-total="0" data-active-days="0" cx="45.88" cy="218.00" r="1.6" fill="#087F8C" opacity="0.5"/><circle class="weekly-point" data-week="4" data-total="0" data-active-days="0" cx="51.84" cy="218.00" r="1.6" fill="#087F8C" opacity="0.5"/><circle class="weekly-point" data-week="5" data-total="0" data-active-days="0" cx="57.80" cy="218.00" r="1.6" fill="#087F8C" opacity="0.5"/><circle class="weekly-point" data-week="6" data-total="0" data-active-days="0" cx="63.76" cy="218.00" r="1.6" fill="#087F8C" opacity="0.5"/><circle class="weekly-point" data-week="7" data-total="0" data-active-days="0" cx="69.73" cy="218.00" r="1.6" fill="#087F8C" opacity="0.5"/><circle class="weekly-point" data-week="8" data-total="0" data-active-days="0" cx="75.69" cy="218.00" r="1.6" fill="#087F8C" opacity="0.5"/><circle class="weekly-point" data-week="9" data-total="0" data-active-days="0" cx="81.65" cy="218.00" r="1.6" fill="#087F8C" opacity="0.5"/><circle class="weekly-point" data-week="10" data-total="0" data-active-days="0" cx="87.61" cy="218.00" r="1.6" fill="#087F8C" opacity="0.5"/><circle class="weekly-point" data-week="11" data-total="26" data-active-days="5" cx="93.57" cy="115.31" r="1.6" fill="#087F8C" opacity="0.5"/><circle class="weekly-point" data-week="12" data-total="0" data-active-days="0" cx="99.53" cy="218.00" r="1.6" fill="#087F8C" opacity="0.5"/><circle class="weekly-point" data-week="13" data-total="2" data-active-days="2" cx="105.49" cy="183.77" r="1.6" fill="#087F8C" opacity="0.5"/><circle class="weekly-point" data-week="14" data-total="4" data-active-days="4" cx="111.45" cy="167.85" r="1.6" fill="#087F8C" opacity="0.5"/><circle class="weekly-point" data-week="15" data-total="3" data-active-days="1" cx="117.41" cy="174.81" r="1.6" fill="#087F8C" opacity="0.5"/><circle class="weekly-point" data-week="16" data-total="4" data-active-days="3" cx="123.37" cy="167.85" r="1.6" fill="#087F8C" opacity="0.5"/><circle class="weekly-point" data-week="17" data-total="13" data-active-days="4" cx="129.33" cy="135.77" r="1.6" fill="#087F8C" opacity="0.5"/><circle class="weekly-point" data-week="18" data-total="3" data-active-days="2" cx="135.29" cy="174.81" r="1.6" fill="#087F8C" opacity="0.5"/><circle class="weekly-point" data-week="19" data-total="7" data-active-days="3" cx="141.25" cy="153.21" r="1.6" fill="#087F8C" opacity="0.5"/><circle class="weekly-point" data-week="20" data-total="15" data-active-days="5" cx="147.22" cy="131.61" r="1.6" fill="#087F8C" opacity="0.5"/><circle class="weekly-point" data-week="21" data-total="8" data-active-days="4" cx="153.18" cy="149.54" r="1.6" fill="#087F8C" opacity="0.5"/><circle class="weekly-point" data-week="22" data-total="38" data-active-days="6" cx="159.14" cy="106.00" r="1.6" fill="#087F8C" opacity="0.5"/><circle class="weekly-point" data-week="23" data-total="12" data-active-days="5" cx="165.10" cy="138.08" r="1.6" fill="#087F8C" opacity="0.5"/><circle class="weekly-point" data-week="24" data-total="36" data-active-days="5" cx="171.06" cy="106.00" r="1.6" fill="#087F8C" opacity="0.5"/><circle class="weekly-point" data-week="25" data-total="2" data-active-days="1" cx="177.02" cy="183.77" r="1.6" fill="#087F8C" opacity="0.5"/><circle class="weekly-point" data-week="26" data-total="11" data-active-days="4" cx="182.98" cy="140.57" r="1.6" fill="#087F8C" opacity="0.5"/><circle class="weekly-point" data-week="27" data-total="11" data-active-days="2" cx="188.94" cy="140.57" r="1.6" fill="#087F8C" opacity="0.5"/><circle class="weekly-point" data-week="28" data-total="6" data-active-days="2" cx="194.90" cy="157.37" r="1.6" fill="#087F8C" opacity="0.5"/><circle class="weekly-point" data-week="29" data-total="3" data-active-days="3" cx="200.86" cy="174.81" r="1.6" fill="#087F8C" opacity="0.5"/><circle class="weekly-point" data-week="30" data-total="2" data-active-days="1" cx="206.82" cy="183.77" r="1.6" fill="#087F8C" opacity="0.5"/><circle class="weekly-point" data-week="31" data-total="2" data-active-days="1" cx="212.78" cy="183.77" r="1.6" fill="#087F8C" opacity="0.5"/><circle class="weekly-point" data-week="32" data-total="0" data-active-days="0" cx="218.75" cy="218.00" r="1.6" fill="#087F8C" opacity="0.5"/><circle class="weekly-point" data-week="33" data-total="0" data-active-days="0" cx="224.71" cy="218.00" r="1.6" fill="#087F8C" opacity="0.5"/><circle class="weekly-point" data-week="34" data-total="2" data-active-days="1" cx="230.67" cy="183.77" r="1.6" fill="#087F8C" opacity="0.5"/><circle class="weekly-point" data-week="35" data-total="0" data-active-days="0" cx="236.63" cy="218.00" r="1.6" fill="#087F8C" opacity="0.5"/><circle class="weekly-point" data-week="36" data-total="9" data-active-days="2" cx="242.59" cy="146.26" r="1.6" fill="#087F8C" opacity="0.5"/><circle class="weekly-point" data-week="37" data-total="3" data-active-days="3" cx="248.55" cy="174.81" r="1.6" fill="#087F8C" opacity="0.5"/><circle class="weekly-point" data-week="38" data-total="1" data-active-days="1" cx="254.51" cy="196.40" r="1.6" fill="#087F8C" opacity="0.5"/><circle class="weekly-point" data-week="39" data-total="14" data-active-days="5" cx="260.47" cy="133.62" r="1.6" fill="#087F8C" opacity="0.5"/><circle class="weekly-point" data-week="40" data-total="11" data-active-days="2" cx="266.43" cy="140.57" r="1.6" fill="#087F8C" opacity="0.5"/><circle class="weekly-point" data-week="41" data-total="19" data-active-days="3" cx="272.39" cy="124.66" r="1.6" fill="#087F8C" opacity="0.5"/><circle class="weekly-point" data-week="42" data-total="59" data-active-days="7" cx="278.35" cy="106.00" r="1.6" fill="#087F8C" opacity="0.5"/><circle class="weekly-point" data-week="43" data-total="89" data-active-days="6" cx="284.31" cy="106.00" r="1.6" fill="#087F8C" opacity="0.5"/><circle class="weekly-point" data-week="44" data-total="45" data-active-days="4" cx="290.27" cy="106.00" r="1.6" fill="#087F8C" opacity="0.5"/><circle class="weekly-point" data-week="45" data-total="41" data-active-days="5" cx="296.24" cy="106.00" r="1.6" fill="#087F8C" opacity="0.5"/><circle class="weekly-point" data-week="46" data-total="30" data-active-days="4" cx="302.20" cy="111.00" r="1.6" fill="#087F8C" opacity="0.5"/><circle class="weekly-point" data-week="47" data-total="14" data-active-days="4" cx="308.16" cy="133.62" r="1.6" fill="#087F8C" opacity="0.5"/><circle class="weekly-point" data-week="48" data-total="11" data-active-days="3" cx="314.12" cy="140.57" r="1.6" fill="#087F8C" opacity="0.5"/><circle class="weekly-point" data-week="49" data-total="15" data-active-days="5" cx="320.08" cy="131.61" r="1.6" fill="#087F8C" opacity="0.5"/><circle class="weekly-point" data-week="50" data-total="13" data-active-days="4" cx="326.04" cy="135.77" r="1.6" fill="#087F8C" opacity="0.5"/><circle class="weekly-point" data-week="51" data-total="0" data-active-days="0" cx="332.00" cy="218.00" r="1.6" fill="#087F8C" opacity="0.5"/><g id="history-peak-marker"><circle cx="284.31" cy="106.00" r="4" fill="#F7F9FB" stroke="#087F8C" stroke-width="1.4"/><text class="mono signal" x="284.31" y="93.00" font-size="8" text-anchor="middle">PEAK 89</text></g><g id="history-current-marker"><line x1="332.00" y1="218.00" x2="332.00" y2="218" stroke="#55B8C1" stroke-dasharray="2 4"/><text class="mono muted" x="332.00" y="260" font-size="8" text-anchor="end">CURRENT</text></g></g><line id="history-scan-front" class="motion" x1="28.00" y1="70" x2="28.00" y2="221" stroke="#087F8C" stroke-width="1.2" opacity="0.72" filter="url(#history-scan-glow)">
              <animate attributeName="x1" values="28.00;332.00;332.00;28.00;28.00" keyTimes="0;0.35;0.85;0.97;1" dur="10s" repeatCount="indefinite" calcMode="linear"/>
              <animate attributeName="x2" values="28.00;332.00;332.00;28.00;28.00" keyTimes="0;0.35;0.85;0.97;1" dur="10s" repeatCount="indefinite" calcMode="linear"/>
              <animate attributeName="opacity" values="0.72;0;0.72;0;0" keyTimes="0;0.35;0.85;0.97;1" dur="10s" repeatCount="indefinite" calcMode="discrete"/>
            </line></svg>
