<svg xmlns="http://www.w3.org/2000/svg" width="100%" viewBox="0 0 1000 230" role="img" aria-labelledby="signal-title signal-description">
  <title id="signal-title">Makaren Signal history</title>
  <desc id="signal-description">A 52-week contribution waveform with peak and current-week markers.</desc>
  <style>
      :root { color-scheme: dark; }
      .sans { font-family: -apple-system, BlinkMacSystemFont, 'Segoe UI', sans-serif; }
      .mono { font-family: ui-monospace, SFMono-Regular, Consolas, 'Liberation Mono', monospace; }
      .label { fill: #7D8590; font-size: 11px; letter-spacing: 2px; }
      .copy { fill: #E6EDF3; }
      .muted { fill: #7D8590; }
      .signal { fill: #32D6E2; }
      .line { stroke: #26303B; }
      .final-opacity { opacity: var(--final-opacity, 1); }
      .reveal { animation: reveal var(--reveal-duration, .32s) ease-out var(--reveal-delay, 0s) both; }
      .draw { animation: draw var(--draw-duration, 1.5s) ease-out var(--draw-delay, 0s) both; }
      .connection { vector-effect: non-scaling-stroke; }
      @keyframes reveal { from { opacity: 0; } to { opacity: var(--final-opacity, 1); } }
      @keyframes draw { from { stroke-dashoffset: 1; } to { stroke-dashoffset: 0; } }
      @media (prefers-reduced-motion: reduce) {
        .motion { display: none !important; }
        .reveal { animation: none !important; opacity: var(--final-opacity, 1) !important; }
        .draw { animation: none !important; stroke-dashoffset: 0 !important; }
      }

    </style>
  <rect width="1000" height="230" fill="#080B10" rx="12"/>
<text class="sans copy" x="48" y="48" font-size="25" font-weight="650" letter-spacing="1">SIGNAL HISTORY</text><text class="mono muted" x="952" y="46" font-size="9" text-anchor="end" letter-spacing="1">52 WEEKS / ROBUST LOG SCALE</text><line x1="62.00" y1="174" x2="938.00" y2="174" stroke="#26303B"/><path class="reveal" style="--final-opacity:0.055;--reveal-delay:0.350s;--reveal-duration:2.05s" d="M 62.00 174.00 C 64.86 174.00 73.45 174.00 79.18 174.00 C 84.90 174.00 90.63 174.00 96.35 174.00 C 102.08 174.00 107.80 174.00 113.53 174.00 C 119.25 174.00 124.98 174.00 130.71 174.00 C 136.43 174.00 142.16 174.00 147.88 174.00 C 153.61 174.00 159.33 174.00 165.06 174.00 C 170.78 174.00 176.51 174.00 182.24 174.00 C 187.96 174.00 193.69 174.00 199.41 174.00 C 205.14 174.00 210.86 174.00 216.59 174.00 C 222.31 174.00 228.04 174.00 233.76 174.00 C 239.49 174.00 245.22 174.00 250.94 174.00 C 256.67 174.00 262.39 174.00 268.12 174.00 C 273.84 174.00 279.57 174.00 285.29 174.00 C 291.02 174.00 296.75 174.00 302.47 174.00 C 308.20 174.00 313.92 174.00 319.65 174.00 C 325.37 174.00 331.10 174.00 336.82 174.00 C 342.55 174.00 348.27 174.00 354.00 174.00 C 359.73 165.33 365.45 136.95 371.18 121.99 C 376.90 107.04 382.63 84.28 388.35 84.28 C 394.08 92.95 399.80 165.75 405.53 174.00 C 411.25 174.00 416.98 143.18 422.71 133.76 C 428.43 124.35 434.16 117.52 439.88 117.52 C 445.61 124.23 451.33 174.00 457.06 174.00 C 462.78 170.00 468.51 101.31 474.24 93.53 C 479.96 93.53 485.69 120.58 491.41 127.29 C 497.14 133.76 502.86 133.76 508.59 133.76 C 514.31 127.57 520.04 93.46 525.76 90.11 C 531.49 90.11 537.22 113.64 542.94 113.64 C 548.67 112.29 554.39 87.27 560.12 82.00 C 565.84 82.00 571.57 82.00 577.29 82.00 C 583.02 82.00 588.75 82.00 594.47 82.00 C 600.20 83.92 605.92 88.25 611.65 93.53 C 617.37 98.80 623.10 113.64 628.82 113.64 C 634.55 113.07 640.27 90.11 646.00 90.11 C 651.73 96.81 657.45 149.96 663.18 153.88 C 668.90 153.88 674.63 113.64 680.35 113.64 C 686.08 113.64 691.80 151.61 697.53 153.88 C 703.25 153.88 708.98 127.29 714.71 127.29 C 720.43 130.64 726.16 166.21 731.88 174.00 C 737.61 174.00 743.33 174.00 749.06 174.00 C 754.78 174.00 760.51 174.00 766.24 174.00 C 771.96 168.69 777.69 153.25 783.41 142.11 C 789.14 130.97 794.86 107.17 800.59 107.17 C 806.31 109.13 812.04 149.45 817.76 153.88 C 823.49 153.88 829.22 139.82 834.94 133.76 C 840.67 127.70 846.39 125.31 852.12 117.52 C 857.84 109.73 863.57 92.13 869.29 87.05 C 875.02 87.05 880.75 87.05 886.47 87.05 C 892.20 86.21 897.92 82.84 903.65 82.00 C 909.37 82.00 915.10 82.00 920.82 82.00 C 926.55 82.00 935.14 82.00 938.00 82.00 L 938.00 174 L 62.00 174 Z" fill="#32D6E2" opacity="0.055"/><path class="draw" style="--draw-duration:2.4s" id="history-wave" data-week-count="52" data-initial-draw="2.4s" data-pulse-duration="2.4s" data-pulse-gap="1.1s" data-cycle="3.5s" d="M 62.00 174.00 C 64.86 174.00 73.45 174.00 79.18 174.00 C 84.90 174.00 90.63 174.00 96.35 174.00 C 102.08 174.00 107.80 174.00 113.53 174.00 C 119.25 174.00 124.98 174.00 130.71 174.00 C 136.43 174.00 142.16 174.00 147.88 174.00 C 153.61 174.00 159.33 174.00 165.06 174.00 C 170.78 174.00 176.51 174.00 182.24 174.00 C 187.96 174.00 193.69 174.00 199.41 174.00 C 205.14 174.00 210.86 174.00 216.59 174.00 C 222.31 174.00 228.04 174.00 233.76 174.00 C 239.49 174.00 245.22 174.00 250.94 174.00 C 256.67 174.00 262.39 174.00 268.12 174.00 C 273.84 174.00 279.57 174.00 285.29 174.00 C 291.02 174.00 296.75 174.00 302.47 174.00 C 308.20 174.00 313.92 174.00 319.65 174.00 C 325.37 174.00 331.10 174.00 336.82 174.00 C 342.55 174.00 348.27 174.00 354.00 174.00 C 359.73 165.33 365.45 136.95 371.18 121.99 C 376.90 107.04 382.63 84.28 388.35 84.28 C 394.08 92.95 399.80 165.75 405.53 174.00 C 411.25 174.00 416.98 143.18 422.71 133.76 C 428.43 124.35 434.16 117.52 439.88 117.52 C 445.61 124.23 451.33 174.00 457.06 174.00 C 462.78 170.00 468.51 101.31 474.24 93.53 C 479.96 93.53 485.69 120.58 491.41 127.29 C 497.14 133.76 502.86 133.76 508.59 133.76 C 514.31 127.57 520.04 93.46 525.76 90.11 C 531.49 90.11 537.22 113.64 542.94 113.64 C 548.67 112.29 554.39 87.27 560.12 82.00 C 565.84 82.00 571.57 82.00 577.29 82.00 C 583.02 82.00 588.75 82.00 594.47 82.00 C 600.20 83.92 605.92 88.25 611.65 93.53 C 617.37 98.80 623.10 113.64 628.82 113.64 C 634.55 113.07 640.27 90.11 646.00 90.11 C 651.73 96.81 657.45 149.96 663.18 153.88 C 668.90 153.88 674.63 113.64 680.35 113.64 C 686.08 113.64 691.80 151.61 697.53 153.88 C 703.25 153.88 708.98 127.29 714.71 127.29 C 720.43 130.64 726.16 166.21 731.88 174.00 C 737.61 174.00 743.33 174.00 749.06 174.00 C 754.78 174.00 760.51 174.00 766.24 174.00 C 771.96 168.69 777.69 153.25 783.41 142.11 C 789.14 130.97 794.86 107.17 800.59 107.17 C 806.31 109.13 812.04 149.45 817.76 153.88 C 823.49 153.88 829.22 139.82 834.94 133.76 C 840.67 127.70 846.39 125.31 852.12 117.52 C 857.84 109.73 863.57 92.13 869.29 87.05 C 875.02 87.05 880.75 87.05 886.47 87.05 C 892.20 86.21 897.92 82.84 903.65 82.00 C 909.37 82.00 915.10 82.00 920.82 82.00 C 926.55 82.00 935.14 82.00 938.00 82.00" fill="none" stroke="#32D6E2" stroke-width="2" stroke-linecap="round" stroke-linejoin="round" pathLength="1" stroke-dasharray="1" stroke-dashoffset="0"/><circle class="weekly-point reveal" style="--final-opacity:0.500;--reveal-delay:0.420s;--reveal-duration:0.24s" data-week="0" data-total="0" data-active-days="0" cx="62.00" cy="174.00" r="1.6" fill="#32D6E2" opacity="0.5"/><circle class="weekly-point reveal" style="--final-opacity:0.500;--reveal-delay:0.456s;--reveal-duration:0.24s" data-week="1" data-total="0" data-active-days="0" cx="79.18" cy="174.00" r="1.6" fill="#32D6E2" opacity="0.5"/><circle class="weekly-point reveal" style="--final-opacity:0.500;--reveal-delay:0.492s;--reveal-duration:0.24s" data-week="2" data-total="0" data-active-days="0" cx="96.35" cy="174.00" r="1.6" fill="#32D6E2" opacity="0.5"/><circle class="weekly-point reveal" style="--final-opacity:0.500;--reveal-delay:0.528s;--reveal-duration:0.24s" data-week="3" data-total="0" data-active-days="0" cx="113.53" cy="174.00" r="1.6" fill="#32D6E2" opacity="0.5"/><circle class="weekly-point reveal" style="--final-opacity:0.500;--reveal-delay:0.564s;--reveal-duration:0.24s" data-week="4" data-total="0" data-active-days="0" cx="130.71" cy="174.00" r="1.6" fill="#32D6E2" opacity="0.5"/><circle class="weekly-point reveal" style="--final-opacity:0.500;--reveal-delay:0.600s;--reveal-duration:0.24s" data-week="5" data-total="0" data-active-days="0" cx="147.88" cy="174.00" r="1.6" fill="#32D6E2" opacity="0.5"/><circle class="weekly-point reveal" style="--final-opacity:0.500;--reveal-delay:0.636s;--reveal-duration:0.24s" data-week="6" data-total="0" data-active-days="0" cx="165.06" cy="174.00" r="1.6" fill="#32D6E2" opacity="0.5"/><circle class="weekly-point reveal" style="--final-opacity:0.500;--reveal-delay:0.672s;--reveal-duration:0.24s" data-week="7" data-total="0" data-active-days="0" cx="182.24" cy="174.00" r="1.6" fill="#32D6E2" opacity="0.5"/><circle class="weekly-point reveal" style="--final-opacity:0.500;--reveal-delay:0.708s;--reveal-duration:0.24s" data-week="8" data-total="0" data-active-days="0" cx="199.41" cy="174.00" r="1.6" fill="#32D6E2" opacity="0.5"/><circle class="weekly-point reveal" style="--final-opacity:0.500;--reveal-delay:0.744s;--reveal-duration:0.24s" data-week="9" data-total="0" data-active-days="0" cx="216.59" cy="174.00" r="1.6" fill="#32D6E2" opacity="0.5"/><circle class="weekly-point reveal" style="--final-opacity:0.500;--reveal-delay:0.780s;--reveal-duration:0.24s" data-week="10" data-total="0" data-active-days="0" cx="233.76" cy="174.00" r="1.6" fill="#32D6E2" opacity="0.5"/><circle class="weekly-point reveal" style="--final-opacity:0.500;--reveal-delay:0.816s;--reveal-duration:0.24s" data-week="11" data-total="0" data-active-days="0" cx="250.94" cy="174.00" r="1.6" fill="#32D6E2" opacity="0.5"/><circle class="weekly-point reveal" style="--final-opacity:0.500;--reveal-delay:0.852s;--reveal-duration:0.24s" data-week="12" data-total="0" data-active-days="0" cx="268.12" cy="174.00" r="1.6" fill="#32D6E2" opacity="0.5"/><circle class="weekly-point reveal" style="--final-opacity:0.500;--reveal-delay:0.888s;--reveal-duration:0.24s" data-week="13" data-total="0" data-active-days="0" cx="285.29" cy="174.00" r="1.6" fill="#32D6E2" opacity="0.5"/><circle class="weekly-point reveal" style="--final-opacity:0.500;--reveal-delay:0.924s;--reveal-duration:0.24s" data-week="14" data-total="0" data-active-days="0" cx="302.47" cy="174.00" r="1.6" fill="#32D6E2" opacity="0.5"/><circle class="weekly-point reveal" style="--final-opacity:0.500;--reveal-delay:0.960s;--reveal-duration:0.24s" data-week="15" data-total="0" data-active-days="0" cx="319.65" cy="174.00" r="1.6" fill="#32D6E2" opacity="0.5"/><circle class="weekly-point reveal" style="--final-opacity:0.500;--reveal-delay:0.996s;--reveal-duration:0.24s" data-week="16" data-total="0" data-active-days="0" cx="336.82" cy="174.00" r="1.6" fill="#32D6E2" opacity="0.5"/><circle class="weekly-point reveal" style="--final-opacity:0.500;--reveal-delay:1.032s;--reveal-duration:0.24s" data-week="17" data-total="0" data-active-days="0" cx="354.00" cy="174.00" r="1.6" fill="#32D6E2" opacity="0.5"/><circle class="weekly-point reveal" style="--final-opacity:0.500;--reveal-delay:1.068s;--reveal-duration:0.24s" data-week="18" data-total="5" data-active-days="2" cx="371.18" cy="121.99" r="1.6" fill="#32D6E2" opacity="0.5"/><circle class="weekly-point reveal" style="--final-opacity:0.500;--reveal-delay:1.104s;--reveal-duration:0.24s" data-week="19" data-total="21" data-active-days="3" cx="388.35" cy="84.28" r="1.6" fill="#32D6E2" opacity="0.5"/><circle class="weekly-point reveal" style="--final-opacity:0.500;--reveal-delay:1.140s;--reveal-duration:0.24s" data-week="20" data-total="0" data-active-days="0" cx="405.53" cy="174.00" r="1.6" fill="#32D6E2" opacity="0.5"/><circle class="weekly-point reveal" style="--final-opacity:0.500;--reveal-delay:1.176s;--reveal-duration:0.24s" data-week="21" data-total="3" data-active-days="3" cx="422.71" cy="133.76" r="1.6" fill="#32D6E2" opacity="0.5"/><circle class="weekly-point reveal" style="--final-opacity:0.500;--reveal-delay:1.212s;--reveal-duration:0.24s" data-week="22" data-total="6" data-active-days="4" cx="439.88" cy="117.52" r="1.6" fill="#32D6E2" opacity="0.5"/><circle class="weekly-point reveal" style="--final-opacity:0.500;--reveal-delay:1.248s;--reveal-duration:0.24s" data-week="23" data-total="0" data-active-days="0" cx="457.06" cy="174.00" r="1.6" fill="#32D6E2" opacity="0.5"/><circle class="weekly-point reveal" style="--final-opacity:0.500;--reveal-delay:1.284s;--reveal-duration:0.24s" data-week="24" data-total="15" data-active-days="6" cx="474.24" cy="93.53" r="1.6" fill="#32D6E2" opacity="0.5"/><circle class="weekly-point reveal" style="--final-opacity:0.500;--reveal-delay:1.320s;--reveal-duration:0.24s" data-week="25" data-total="4" data-active-days="2" cx="491.41" cy="127.29" r="1.6" fill="#32D6E2" opacity="0.5"/><circle class="weekly-point reveal" style="--final-opacity:0.500;--reveal-delay:1.356s;--reveal-duration:0.24s" data-week="26" data-total="3" data-active-days="2" cx="508.59" cy="133.76" r="1.6" fill="#32D6E2" opacity="0.5"/><circle class="weekly-point reveal" style="--final-opacity:0.500;--reveal-delay:1.392s;--reveal-duration:0.24s" data-week="27" data-total="17" data-active-days="6" cx="525.76" cy="90.11" r="1.6" fill="#32D6E2" opacity="0.5"/><circle class="weekly-point reveal" style="--final-opacity:0.500;--reveal-delay:1.428s;--reveal-duration:0.24s" data-week="28" data-total="7" data-active-days="3" cx="542.94" cy="113.64" r="1.6" fill="#32D6E2" opacity="0.5"/><circle class="weekly-point reveal" style="--final-opacity:0.500;--reveal-delay:1.464s;--reveal-duration:0.24s" data-week="29" data-total="25" data-active-days="5" cx="560.12" cy="82.00" r="1.6" fill="#32D6E2" opacity="0.5"/><circle class="weekly-point reveal" style="--final-opacity:0.500;--reveal-delay:1.500s;--reveal-duration:0.24s" data-week="30" data-total="27" data-active-days="6" cx="577.29" cy="82.00" r="1.6" fill="#32D6E2" opacity="0.5"/><circle class="weekly-point reveal" style="--final-opacity:0.500;--reveal-delay:1.536s;--reveal-duration:0.24s" data-week="31" data-total="23" data-active-days="4" cx="594.47" cy="82.00" r="1.6" fill="#32D6E2" opacity="0.5"/><circle class="weekly-point reveal" style="--final-opacity:0.500;--reveal-delay:1.572s;--reveal-duration:0.24s" data-week="32" data-total="15" data-active-days="3" cx="611.65" cy="93.53" r="1.6" fill="#32D6E2" opacity="0.5"/><circle class="weekly-point reveal" style="--final-opacity:0.500;--reveal-delay:1.608s;--reveal-duration:0.24s" data-week="33" data-total="7" data-active-days="3" cx="628.82" cy="113.64" r="1.6" fill="#32D6E2" opacity="0.5"/><circle class="weekly-point reveal" style="--final-opacity:0.500;--reveal-delay:1.644s;--reveal-duration:0.24s" data-week="34" data-total="17" data-active-days="4" cx="646.00" cy="90.11" r="1.6" fill="#32D6E2" opacity="0.5"/><circle class="weekly-point reveal" style="--final-opacity:0.500;--reveal-delay:1.680s;--reveal-duration:0.24s" data-week="35" data-total="1" data-active-days="1" cx="663.18" cy="153.88" r="1.6" fill="#32D6E2" opacity="0.5"/><circle class="weekly-point reveal" style="--final-opacity:0.500;--reveal-delay:1.716s;--reveal-duration:0.24s" data-week="36" data-total="7" data-active-days="3" cx="680.35" cy="113.64" r="1.6" fill="#32D6E2" opacity="0.5"/><circle class="weekly-point reveal" style="--final-opacity:0.500;--reveal-delay:1.752s;--reveal-duration:0.24s" data-week="37" data-total="1" data-active-days="1" cx="697.53" cy="153.88" r="1.6" fill="#32D6E2" opacity="0.5"/><circle class="weekly-point reveal" style="--final-opacity:0.500;--reveal-delay:1.788s;--reveal-duration:0.24s" data-week="38" data-total="4" data-active-days="2" cx="714.71" cy="127.29" r="1.6" fill="#32D6E2" opacity="0.5"/><circle class="weekly-point reveal" style="--final-opacity:0.500;--reveal-delay:1.824s;--reveal-duration:0.24s" data-week="39" data-total="0" data-active-days="0" cx="731.88" cy="174.00" r="1.6" fill="#32D6E2" opacity="0.5"/><circle class="weekly-point reveal" style="--final-opacity:0.500;--reveal-delay:1.860s;--reveal-duration:0.24s" data-week="40" data-total="0" data-active-days="0" cx="749.06" cy="174.00" r="1.6" fill="#32D6E2" opacity="0.5"/><circle class="weekly-point reveal" style="--final-opacity:0.500;--reveal-delay:1.896s;--reveal-duration:0.24s" data-week="41" data-total="0" data-active-days="0" cx="766.24" cy="174.00" r="1.6" fill="#32D6E2" opacity="0.5"/><circle class="weekly-point reveal" style="--final-opacity:0.500;--reveal-delay:1.932s;--reveal-duration:0.24s" data-week="42" data-total="2" data-active-days="1" cx="783.41" cy="142.11" r="1.6" fill="#32D6E2" opacity="0.5"/><circle class="weekly-point reveal" style="--final-opacity:0.500;--reveal-delay:1.968s;--reveal-duration:0.24s" data-week="43" data-total="9" data-active-days="2" cx="800.59" cy="107.17" r="1.6" fill="#32D6E2" opacity="0.5"/><circle class="weekly-point reveal" style="--final-opacity:0.500;--reveal-delay:2.004s;--reveal-duration:0.24s" data-week="44" data-total="1" data-active-days="1" cx="817.76" cy="153.88" r="1.6" fill="#32D6E2" opacity="0.5"/><circle class="weekly-point reveal" style="--final-opacity:0.500;--reveal-delay:2.040s;--reveal-duration:0.24s" data-week="45" data-total="3" data-active-days="3" cx="834.94" cy="133.76" r="1.6" fill="#32D6E2" opacity="0.5"/><circle class="weekly-point reveal" style="--final-opacity:0.500;--reveal-delay:2.076s;--reveal-duration:0.24s" data-week="46" data-total="6" data-active-days="2" cx="852.12" cy="117.52" r="1.6" fill="#32D6E2" opacity="0.5"/><circle class="weekly-point reveal" style="--final-opacity:0.500;--reveal-delay:2.112s;--reveal-duration:0.24s" data-week="47" data-total="19" data-active-days="5" cx="869.29" cy="87.05" r="1.6" fill="#32D6E2" opacity="0.5"/><circle class="weekly-point reveal" style="--final-opacity:0.500;--reveal-delay:2.148s;--reveal-duration:0.24s" data-week="48" data-total="19" data-active-days="3" cx="886.47" cy="87.05" r="1.6" fill="#32D6E2" opacity="0.5"/><circle class="weekly-point reveal" style="--final-opacity:0.500;--reveal-delay:2.184s;--reveal-duration:0.24s" data-week="49" data-total="34" data-active-days="4" cx="903.65" cy="82.00" r="1.6" fill="#32D6E2" opacity="0.5"/><circle class="weekly-point reveal" style="--final-opacity:0.500;--reveal-delay:2.220s;--reveal-duration:0.24s" data-week="50" data-total="69" data-active-days="6" cx="920.82" cy="82.00" r="1.6" fill="#32D6E2" opacity="0.5"/><circle class="weekly-point reveal" style="--final-opacity:0.500;--reveal-delay:2.256s;--reveal-duration:0.24s" data-week="51" data-total="85" data-active-days="7" cx="938.00" cy="82.00" r="1.6" fill="#32D6E2" opacity="0.5"/><line x1="62.00" y1="179" x2="62.00" y2="184" stroke="#26303B"/><text class="mono muted" x="62.00" y="200" font-size="8">JUL</text><line x1="96.35" y1="179" x2="96.35" y2="184" stroke="#26303B"/><text class="mono muted" x="96.35" y="200" font-size="8">AUG</text><line x1="165.06" y1="179" x2="165.06" y2="184" stroke="#26303B"/><text class="mono muted" x="165.06" y="200" font-size="8">SEP</text><line x1="233.76" y1="179" x2="233.76" y2="184" stroke="#26303B"/><text class="mono muted" x="233.76" y="200" font-size="8">OCT</text><line x1="319.65" y1="179" x2="319.65" y2="184" stroke="#26303B"/><text class="mono muted" x="319.65" y="200" font-size="8">NOV</text><line x1="388.35" y1="179" x2="388.35" y2="184" stroke="#26303B"/><text class="mono muted" x="388.35" y="200" font-size="8">DEC</text><line x1="474.24" y1="179" x2="474.24" y2="184" stroke="#26303B"/><text class="mono muted" x="474.24" y="200" font-size="8">JAN</text><line x1="542.94" y1="179" x2="542.94" y2="184" stroke="#26303B"/><text class="mono muted" x="542.94" y="200" font-size="8">FEB</text><line x1="611.65" y1="179" x2="611.65" y2="184" stroke="#26303B"/><text class="mono muted" x="611.65" y="200" font-size="8">MAR</text><line x1="680.35" y1="179" x2="680.35" y2="184" stroke="#26303B"/><text class="mono muted" x="680.35" y="200" font-size="8">APR</text><line x1="766.24" y1="179" x2="766.24" y2="184" stroke="#26303B"/><text class="mono muted" x="766.24" y="200" font-size="8">MAY</text><line x1="834.94" y1="179" x2="834.94" y2="184" stroke="#26303B"/><text class="mono muted" x="834.94" y="200" font-size="8">JUN</text><line x1="903.65" y1="179" x2="903.65" y2="184" stroke="#26303B"/><text class="mono muted" x="903.65" y="200" font-size="8">JUL</text><g class="reveal" style="--final-opacity:1.000;--reveal-delay:2.480s;--reveal-duration:0.32s"><circle cx="938.00" cy="82.00" r="4" fill="#080B10" stroke="#32D6E2" stroke-width="1.4"/><text class="mono signal" x="938.00" y="76.00" font-size="8" text-anchor="middle">PEAK 85</text><line x1="938.00" y1="82.00" x2="938.00" y2="174" stroke="#1B7D86" stroke-dasharray="2 4"/><text class="mono muted" x="938.00" y="216" font-size="8" text-anchor="end">CURRENT</text></g><defs><filter id="history-pulse-glow" x="-30%" y="-60%" width="160%" height="220%"><feGaussianBlur stdDeviation="2.2" result="blur"/><feMerge><feMergeNode in="blur"/><feMergeNode in="SourceGraphic"/></feMerge></filter><mask id="history-pulse-points-mask"><rect width="1000" height="230" fill="black"/><circle r="24" fill="white"><animateMotion id="history-points-mask-motion" path="M 62.00 174.00 C 64.86 174.00 73.45 174.00 79.18 174.00 C 84.90 174.00 90.63 174.00 96.35 174.00 C 102.08 174.00 107.80 174.00 113.53 174.00 C 119.25 174.00 124.98 174.00 130.71 174.00 C 136.43 174.00 142.16 174.00 147.88 174.00 C 153.61 174.00 159.33 174.00 165.06 174.00 C 170.78 174.00 176.51 174.00 182.24 174.00 C 187.96 174.00 193.69 174.00 199.41 174.00 C 205.14 174.00 210.86 174.00 216.59 174.00 C 222.31 174.00 228.04 174.00 233.76 174.00 C 239.49 174.00 245.22 174.00 250.94 174.00 C 256.67 174.00 262.39 174.00 268.12 174.00 C 273.84 174.00 279.57 174.00 285.29 174.00 C 291.02 174.00 296.75 174.00 302.47 174.00 C 308.20 174.00 313.92 174.00 319.65 174.00 C 325.37 174.00 331.10 174.00 336.82 174.00 C 342.55 174.00 348.27 174.00 354.00 174.00 C 359.73 165.33 365.45 136.95 371.18 121.99 C 376.90 107.04 382.63 84.28 388.35 84.28 C 394.08 92.95 399.80 165.75 405.53 174.00 C 411.25 174.00 416.98 143.18 422.71 133.76 C 428.43 124.35 434.16 117.52 439.88 117.52 C 445.61 124.23 451.33 174.00 457.06 174.00 C 462.78 170.00 468.51 101.31 474.24 93.53 C 479.96 93.53 485.69 120.58 491.41 127.29 C 497.14 133.76 502.86 133.76 508.59 133.76 C 514.31 127.57 520.04 93.46 525.76 90.11 C 531.49 90.11 537.22 113.64 542.94 113.64 C 548.67 112.29 554.39 87.27 560.12 82.00 C 565.84 82.00 571.57 82.00 577.29 82.00 C 583.02 82.00 588.75 82.00 594.47 82.00 C 600.20 83.92 605.92 88.25 611.65 93.53 C 617.37 98.80 623.10 113.64 628.82 113.64 C 634.55 113.07 640.27 90.11 646.00 90.11 C 651.73 96.81 657.45 149.96 663.18 153.88 C 668.90 153.88 674.63 113.64 680.35 113.64 C 686.08 113.64 691.80 151.61 697.53 153.88 C 703.25 153.88 708.98 127.29 714.71 127.29 C 720.43 130.64 726.16 166.21 731.88 174.00 C 737.61 174.00 743.33 174.00 749.06 174.00 C 754.78 174.00 760.51 174.00 766.24 174.00 C 771.96 168.69 777.69 153.25 783.41 142.11 C 789.14 130.97 794.86 107.17 800.59 107.17 C 806.31 109.13 812.04 149.45 817.76 153.88 C 823.49 153.88 829.22 139.82 834.94 133.76 C 840.67 127.70 846.39 125.31 852.12 117.52 C 857.84 109.73 863.57 92.13 869.29 87.05 C 875.02 87.05 880.75 87.05 886.47 87.05 C 892.20 86.21 897.92 82.84 903.65 82.00 C 909.37 82.00 915.10 82.00 920.82 82.00 C 926.55 82.00 935.14 82.00 938.00 82.00" begin="3.5s;history-points-mask-motion.end+1.1s" dur="2.4s" fill="freeze"/></circle></mask></defs>
            <g class="motion" mask="url(#history-pulse-points-mask)" opacity=".82"><circle cx="62.00" cy="174.00" r="3.4" fill="#32D6E2"/><circle cx="79.18" cy="174.00" r="3.4" fill="#32D6E2"/><circle cx="96.35" cy="174.00" r="3.4" fill="#32D6E2"/><circle cx="113.53" cy="174.00" r="3.4" fill="#32D6E2"/><circle cx="130.71" cy="174.00" r="3.4" fill="#32D6E2"/><circle cx="147.88" cy="174.00" r="3.4" fill="#32D6E2"/><circle cx="165.06" cy="174.00" r="3.4" fill="#32D6E2"/><circle cx="182.24" cy="174.00" r="3.4" fill="#32D6E2"/><circle cx="199.41" cy="174.00" r="3.4" fill="#32D6E2"/><circle cx="216.59" cy="174.00" r="3.4" fill="#32D6E2"/><circle cx="233.76" cy="174.00" r="3.4" fill="#32D6E2"/><circle cx="250.94" cy="174.00" r="3.4" fill="#32D6E2"/><circle cx="268.12" cy="174.00" r="3.4" fill="#32D6E2"/><circle cx="285.29" cy="174.00" r="3.4" fill="#32D6E2"/><circle cx="302.47" cy="174.00" r="3.4" fill="#32D6E2"/><circle cx="319.65" cy="174.00" r="3.4" fill="#32D6E2"/><circle cx="336.82" cy="174.00" r="3.4" fill="#32D6E2"/><circle cx="354.00" cy="174.00" r="3.4" fill="#32D6E2"/><circle cx="371.18" cy="121.99" r="3.4" fill="#32D6E2"/><circle cx="388.35" cy="84.28" r="3.4" fill="#32D6E2"/><circle cx="405.53" cy="174.00" r="3.4" fill="#32D6E2"/><circle cx="422.71" cy="133.76" r="3.4" fill="#32D6E2"/><circle cx="439.88" cy="117.52" r="3.4" fill="#32D6E2"/><circle cx="457.06" cy="174.00" r="3.4" fill="#32D6E2"/><circle cx="474.24" cy="93.53" r="3.4" fill="#32D6E2"/><circle cx="491.41" cy="127.29" r="3.4" fill="#32D6E2"/><circle cx="508.59" cy="133.76" r="3.4" fill="#32D6E2"/><circle cx="525.76" cy="90.11" r="3.4" fill="#32D6E2"/><circle cx="542.94" cy="113.64" r="3.4" fill="#32D6E2"/><circle cx="560.12" cy="82.00" r="3.4" fill="#32D6E2"/><circle cx="577.29" cy="82.00" r="3.4" fill="#32D6E2"/><circle cx="594.47" cy="82.00" r="3.4" fill="#32D6E2"/><circle cx="611.65" cy="93.53" r="3.4" fill="#32D6E2"/><circle cx="628.82" cy="113.64" r="3.4" fill="#32D6E2"/><circle cx="646.00" cy="90.11" r="3.4" fill="#32D6E2"/><circle cx="663.18" cy="153.88" r="3.4" fill="#32D6E2"/><circle cx="680.35" cy="113.64" r="3.4" fill="#32D6E2"/><circle cx="697.53" cy="153.88" r="3.4" fill="#32D6E2"/><circle cx="714.71" cy="127.29" r="3.4" fill="#32D6E2"/><circle cx="731.88" cy="174.00" r="3.4" fill="#32D6E2"/><circle cx="749.06" cy="174.00" r="3.4" fill="#32D6E2"/><circle cx="766.24" cy="174.00" r="3.4" fill="#32D6E2"/><circle cx="783.41" cy="142.11" r="3.4" fill="#32D6E2"/><circle cx="800.59" cy="107.17" r="3.4" fill="#32D6E2"/><circle cx="817.76" cy="153.88" r="3.4" fill="#32D6E2"/><circle cx="834.94" cy="133.76" r="3.4" fill="#32D6E2"/><circle cx="852.12" cy="117.52" r="3.4" fill="#32D6E2"/><circle cx="869.29" cy="87.05" r="3.4" fill="#32D6E2"/><circle cx="886.47" cy="87.05" r="3.4" fill="#32D6E2"/><circle cx="903.65" cy="82.00" r="3.4" fill="#32D6E2"/><circle cx="920.82" cy="82.00" r="3.4" fill="#32D6E2"/><circle cx="938.00" cy="82.00" r="3.4" fill="#32D6E2"/></g>
            <path class="motion" d="M 62.00 174.00 C 64.86 174.00 73.45 174.00 79.18 174.00 C 84.90 174.00 90.63 174.00 96.35 174.00 C 102.08 174.00 107.80 174.00 113.53 174.00 C 119.25 174.00 124.98 174.00 130.71 174.00 C 136.43 174.00 142.16 174.00 147.88 174.00 C 153.61 174.00 159.33 174.00 165.06 174.00 C 170.78 174.00 176.51 174.00 182.24 174.00 C 187.96 174.00 193.69 174.00 199.41 174.00 C 205.14 174.00 210.86 174.00 216.59 174.00 C 222.31 174.00 228.04 174.00 233.76 174.00 C 239.49 174.00 245.22 174.00 250.94 174.00 C 256.67 174.00 262.39 174.00 268.12 174.00 C 273.84 174.00 279.57 174.00 285.29 174.00 C 291.02 174.00 296.75 174.00 302.47 174.00 C 308.20 174.00 313.92 174.00 319.65 174.00 C 325.37 174.00 331.10 174.00 336.82 174.00 C 342.55 174.00 348.27 174.00 354.00 174.00 C 359.73 165.33 365.45 136.95 371.18 121.99 C 376.90 107.04 382.63 84.28 388.35 84.28 C 394.08 92.95 399.80 165.75 405.53 174.00 C 411.25 174.00 416.98 143.18 422.71 133.76 C 428.43 124.35 434.16 117.52 439.88 117.52 C 445.61 124.23 451.33 174.00 457.06 174.00 C 462.78 170.00 468.51 101.31 474.24 93.53 C 479.96 93.53 485.69 120.58 491.41 127.29 C 497.14 133.76 502.86 133.76 508.59 133.76 C 514.31 127.57 520.04 93.46 525.76 90.11 C 531.49 90.11 537.22 113.64 542.94 113.64 C 548.67 112.29 554.39 87.27 560.12 82.00 C 565.84 82.00 571.57 82.00 577.29 82.00 C 583.02 82.00 588.75 82.00 594.47 82.00 C 600.20 83.92 605.92 88.25 611.65 93.53 C 617.37 98.80 623.10 113.64 628.82 113.64 C 634.55 113.07 640.27 90.11 646.00 90.11 C 651.73 96.81 657.45 149.96 663.18 153.88 C 668.90 153.88 674.63 113.64 680.35 113.64 C 686.08 113.64 691.80 151.61 697.53 153.88 C 703.25 153.88 708.98 127.29 714.71 127.29 C 720.43 130.64 726.16 166.21 731.88 174.00 C 737.61 174.00 743.33 174.00 749.06 174.00 C 754.78 174.00 760.51 174.00 766.24 174.00 C 771.96 168.69 777.69 153.25 783.41 142.11 C 789.14 130.97 794.86 107.17 800.59 107.17 C 806.31 109.13 812.04 149.45 817.76 153.88 C 823.49 153.88 829.22 139.82 834.94 133.76 C 840.67 127.70 846.39 125.31 852.12 117.52 C 857.84 109.73 863.57 92.13 869.29 87.05 C 875.02 87.05 880.75 87.05 886.47 87.05 C 892.20 86.21 897.92 82.84 903.65 82.00 C 909.37 82.00 915.10 82.00 920.82 82.00 C 926.55 82.00 935.14 82.00 938.00 82.00" fill="none" stroke="#32D6E2" stroke-width="3.4" stroke-linecap="round" pathLength="1" stroke-dasharray=".10 .90" opacity="0" filter="url(#history-pulse-glow)"><animate id="history-pulse-trail" attributeName="stroke-dashoffset" from="0" to="-1" begin="3.5s;history-pulse-trail.end+1.1s" dur="2.4s" fill="freeze"/><animate attributeName="opacity" values="0;.58;.58;0" keyTimes="0;.06;.92;1" begin="3.5s;history-pulse-trail-opacity.end+1.1s" dur="2.4s" fill="freeze" id="history-pulse-trail-opacity"/></path>
            <circle class="motion" r="11" fill="#32D6E2" opacity="0" filter="url(#history-pulse-glow)"><animateMotion id="history-pulse-halo-motion" path="M 62.00 174.00 C 64.86 174.00 73.45 174.00 79.18 174.00 C 84.90 174.00 90.63 174.00 96.35 174.00 C 102.08 174.00 107.80 174.00 113.53 174.00 C 119.25 174.00 124.98 174.00 130.71 174.00 C 136.43 174.00 142.16 174.00 147.88 174.00 C 153.61 174.00 159.33 174.00 165.06 174.00 C 170.78 174.00 176.51 174.00 182.24 174.00 C 187.96 174.00 193.69 174.00 199.41 174.00 C 205.14 174.00 210.86 174.00 216.59 174.00 C 222.31 174.00 228.04 174.00 233.76 174.00 C 239.49 174.00 245.22 174.00 250.94 174.00 C 256.67 174.00 262.39 174.00 268.12 174.00 C 273.84 174.00 279.57 174.00 285.29 174.00 C 291.02 174.00 296.75 174.00 302.47 174.00 C 308.20 174.00 313.92 174.00 319.65 174.00 C 325.37 174.00 331.10 174.00 336.82 174.00 C 342.55 174.00 348.27 174.00 354.00 174.00 C 359.73 165.33 365.45 136.95 371.18 121.99 C 376.90 107.04 382.63 84.28 388.35 84.28 C 394.08 92.95 399.80 165.75 405.53 174.00 C 411.25 174.00 416.98 143.18 422.71 133.76 C 428.43 124.35 434.16 117.52 439.88 117.52 C 445.61 124.23 451.33 174.00 457.06 174.00 C 462.78 170.00 468.51 101.31 474.24 93.53 C 479.96 93.53 485.69 120.58 491.41 127.29 C 497.14 133.76 502.86 133.76 508.59 133.76 C 514.31 127.57 520.04 93.46 525.76 90.11 C 531.49 90.11 537.22 113.64 542.94 113.64 C 548.67 112.29 554.39 87.27 560.12 82.00 C 565.84 82.00 571.57 82.00 577.29 82.00 C 583.02 82.00 588.75 82.00 594.47 82.00 C 600.20 83.92 605.92 88.25 611.65 93.53 C 617.37 98.80 623.10 113.64 628.82 113.64 C 634.55 113.07 640.27 90.11 646.00 90.11 C 651.73 96.81 657.45 149.96 663.18 153.88 C 668.90 153.88 674.63 113.64 680.35 113.64 C 686.08 113.64 691.80 151.61 697.53 153.88 C 703.25 153.88 708.98 127.29 714.71 127.29 C 720.43 130.64 726.16 166.21 731.88 174.00 C 737.61 174.00 743.33 174.00 749.06 174.00 C 754.78 174.00 760.51 174.00 766.24 174.00 C 771.96 168.69 777.69 153.25 783.41 142.11 C 789.14 130.97 794.86 107.17 800.59 107.17 C 806.31 109.13 812.04 149.45 817.76 153.88 C 823.49 153.88 829.22 139.82 834.94 133.76 C 840.67 127.70 846.39 125.31 852.12 117.52 C 857.84 109.73 863.57 92.13 869.29 87.05 C 875.02 87.05 880.75 87.05 886.47 87.05 C 892.20 86.21 897.92 82.84 903.65 82.00 C 909.37 82.00 915.10 82.00 920.82 82.00 C 926.55 82.00 935.14 82.00 938.00 82.00" begin="3.5s;history-pulse-halo-motion.end+1.1s" dur="2.4s" fill="freeze"/><animate id="history-pulse-halo-opacity" attributeName="opacity" values="0;.17;.17;0" keyTimes="0;.06;.92;1" begin="3.5s;history-pulse-halo-opacity.end+1.1s" dur="2.4s" fill="freeze"/></circle>
            <circle class="motion" r="5.2" fill="#32D6E2" opacity="0"><animateMotion id="history-pulse-motion" path="M 62.00 174.00 C 64.86 174.00 73.45 174.00 79.18 174.00 C 84.90 174.00 90.63 174.00 96.35 174.00 C 102.08 174.00 107.80 174.00 113.53 174.00 C 119.25 174.00 124.98 174.00 130.71 174.00 C 136.43 174.00 142.16 174.00 147.88 174.00 C 153.61 174.00 159.33 174.00 165.06 174.00 C 170.78 174.00 176.51 174.00 182.24 174.00 C 187.96 174.00 193.69 174.00 199.41 174.00 C 205.14 174.00 210.86 174.00 216.59 174.00 C 222.31 174.00 228.04 174.00 233.76 174.00 C 239.49 174.00 245.22 174.00 250.94 174.00 C 256.67 174.00 262.39 174.00 268.12 174.00 C 273.84 174.00 279.57 174.00 285.29 174.00 C 291.02 174.00 296.75 174.00 302.47 174.00 C 308.20 174.00 313.92 174.00 319.65 174.00 C 325.37 174.00 331.10 174.00 336.82 174.00 C 342.55 174.00 348.27 174.00 354.00 174.00 C 359.73 165.33 365.45 136.95 371.18 121.99 C 376.90 107.04 382.63 84.28 388.35 84.28 C 394.08 92.95 399.80 165.75 405.53 174.00 C 411.25 174.00 416.98 143.18 422.71 133.76 C 428.43 124.35 434.16 117.52 439.88 117.52 C 445.61 124.23 451.33 174.00 457.06 174.00 C 462.78 170.00 468.51 101.31 474.24 93.53 C 479.96 93.53 485.69 120.58 491.41 127.29 C 497.14 133.76 502.86 133.76 508.59 133.76 C 514.31 127.57 520.04 93.46 525.76 90.11 C 531.49 90.11 537.22 113.64 542.94 113.64 C 548.67 112.29 554.39 87.27 560.12 82.00 C 565.84 82.00 571.57 82.00 577.29 82.00 C 583.02 82.00 588.75 82.00 594.47 82.00 C 600.20 83.92 605.92 88.25 611.65 93.53 C 617.37 98.80 623.10 113.64 628.82 113.64 C 634.55 113.07 640.27 90.11 646.00 90.11 C 651.73 96.81 657.45 149.96 663.18 153.88 C 668.90 153.88 674.63 113.64 680.35 113.64 C 686.08 113.64 691.80 151.61 697.53 153.88 C 703.25 153.88 708.98 127.29 714.71 127.29 C 720.43 130.64 726.16 166.21 731.88 174.00 C 737.61 174.00 743.33 174.00 749.06 174.00 C 754.78 174.00 760.51 174.00 766.24 174.00 C 771.96 168.69 777.69 153.25 783.41 142.11 C 789.14 130.97 794.86 107.17 800.59 107.17 C 806.31 109.13 812.04 149.45 817.76 153.88 C 823.49 153.88 829.22 139.82 834.94 133.76 C 840.67 127.70 846.39 125.31 852.12 117.52 C 857.84 109.73 863.57 92.13 869.29 87.05 C 875.02 87.05 880.75 87.05 886.47 87.05 C 892.20 86.21 897.92 82.84 903.65 82.00 C 909.37 82.00 915.10 82.00 920.82 82.00 C 926.55 82.00 935.14 82.00 938.00 82.00" begin="3.5s;history-pulse-motion.end+1.1s" dur="2.4s" fill="freeze"/><animate id="history-pulse-opacity" attributeName="opacity" values="0;.88;.88;0" keyTimes="0;.06;.92;1" begin="3.5s;history-pulse-opacity.end+1.1s" dur="2.4s" fill="freeze"/></circle></svg>
