<svg xmlns="http://www.w3.org/2000/svg" width="100%" viewBox="0 0 360 300" role="img" aria-labelledby="signal-title signal-description">
  <title id="signal-title">Makaren Signal history</title>
  <desc id="signal-description">A 52-week contribution waveform with peak and current-week markers.</desc>
  <style>
      :root { color-scheme: dark; }
      .sans { font-family: -apple-system, BlinkMacSystemFont, 'Segoe UI', sans-serif; }
      .mono { font-family: ui-monospace, SFMono-Regular, Consolas, 'Liberation Mono', monospace; }
      .label { fill: #7D8590; font-size: 11px; letter-spacing: 2px; }
      .copy { fill: #E6EDF3; }
      .muted { fill: #7D8590; }
      .signal { fill: #32D6E2; }
      .line { stroke: #26303B; }
      .final-opacity { opacity: var(--final-opacity, 1); }
      .reveal { animation: reveal var(--reveal-duration, .32s) ease-out var(--reveal-delay, 0s) both; }
      .draw { animation: draw var(--draw-duration, 1.5s) ease-out var(--draw-delay, 0s) both; }
      .connection { vector-effect: non-scaling-stroke; }
      @keyframes reveal { from { opacity: 0; } to { opacity: var(--final-opacity, 1); } }
      @keyframes draw { from { stroke-dashoffset: 1; } to { stroke-dashoffset: 0; } }
      @media (prefers-reduced-motion: reduce) {
        .motion { display: none !important; }
        .reveal { animation: none !important; opacity: var(--final-opacity, 1) !important; }
        .draw { animation: none !important; stroke-dashoffset: 0 !important; }
      }

    </style>
  <rect width="360" height="300" fill="#080B10" rx="12"/>
<g id="history-static"><text class="sans copy" x="24" y="46" font-size="23" font-weight="650" letter-spacing="1">SIGNAL HISTORY</text><text class="mono muted" x="336" y="68" font-size="9" text-anchor="end" letter-spacing="1">52 WEEKS / ROBUST LOG SCALE</text><line id="history-baseline" x1="28.00" y1="218" x2="332.00" y2="218" stroke="#26303B"/><line class="month-tick" x1="28.00" y1="223" x2="28.00" y2="228" stroke="#26303B"/><text class="mono muted month-label" x="28.00" y="244" font-size="8">JUL</text><line class="month-tick" x1="39.92" y1="223" x2="39.92" y2="228" stroke="#26303B"/><line class="month-tick" x1="63.76" y1="223" x2="63.76" y2="228" stroke="#26303B"/><text class="mono muted month-label" x="63.76" y="244" font-size="8">SEP</text><line class="month-tick" x1="87.61" y1="223" x2="87.61" y2="228" stroke="#26303B"/><line class="month-tick" x1="117.41" y1="223" x2="117.41" y2="228" stroke="#26303B"/><text class="mono muted month-label" x="117.41" y="244" font-size="8">NOV</text><line class="month-tick" x1="141.25" y1="223" x2="141.25" y2="228" stroke="#26303B"/><line class="month-tick" x1="165.10" y1="223" x2="165.10" y2="228" stroke="#26303B"/><text class="mono muted month-label" x="165.10" y="244" font-size="8">JAN</text><line class="month-tick" x1="194.90" y1="223" x2="194.90" y2="228" stroke="#26303B"/><line class="month-tick" x1="218.75" y1="223" x2="218.75" y2="228" stroke="#26303B"/><text class="mono muted month-label" x="218.75" y="244" font-size="8">MAR</text><line class="month-tick" x1="242.59" y1="223" x2="242.59" y2="228" stroke="#26303B"/><line class="month-tick" x1="272.39" y1="223" x2="272.39" y2="228" stroke="#26303B"/><text class="mono muted month-label" x="272.39" y="244" font-size="8">MAY</text><line class="month-tick" x1="296.24" y1="223" x2="296.24" y2="228" stroke="#26303B"/><line class="month-tick" x1="320.08" y1="223" x2="320.08" y2="228" stroke="#26303B"/><text class="mono muted month-label" x="320.08" y="244" font-size="8">JUL</text></g><defs>
              <clipPath id="history-reveal-clip" clipPathUnits="userSpaceOnUse">
                <rect id="history-reveal-window" x="28.00" y="70" width="0" height="230">
                  <animate id="history-reveal-width" attributeName="width" values="0;304.00;304.00;0;0" keyTimes="0;0.35;0.85;0.97;1" dur="10s" repeatCount="indefinite" calcMode="linear"/>
                </rect>
              </clipPath>
              <filter id="history-scan-glow" x="-100%" y="-20%" width="300%" height="140%"><feGaussianBlur stdDeviation="1.1" result="blur"/><feMerge><feMergeNode in="blur"/><feMergeNode in="SourceGraphic"/></feMerge></filter>
            </defs><g id="history-data" data-animation="cyclic-reveal" data-build-duration="3.5s" data-hold-duration="5.0s" data-collapse-duration="1.2s" data-pause-duration="0.3s" data-cycle="10.0s" clip-path="url(#history-reveal-clip)"><path id="history-area" d="M 28.00 218.00 C 28.99 218.00 31.97 218.00 33.96 218.00 C 35.95 218.00 37.93 218.00 39.92 218.00 C 41.91 218.00 43.90 218.00 45.88 218.00 C 47.87 218.00 49.86 218.00 51.84 218.00 C 53.83 218.00 55.82 218.00 57.80 218.00 C 59.79 218.00 61.78 218.00 63.76 218.00 C 65.75 218.00 67.74 218.00 69.73 218.00 C 71.71 218.00 73.70 218.00 75.69 218.00 C 77.67 218.00 79.66 218.00 81.65 218.00 C 83.63 218.00 85.62 218.00 87.61 218.00 C 89.59 218.00 91.58 218.00 93.57 218.00 C 95.56 218.00 97.54 218.00 99.53 218.00 C 101.52 218.00 103.50 218.00 105.49 218.00 C 107.48 218.00 109.46 218.00 111.45 218.00 C 113.44 218.00 115.42 218.00 117.41 218.00 C 119.40 218.00 121.39 218.00 123.37 218.00 C 125.36 218.00 127.35 218.00 129.33 218.00 C 131.32 202.20 133.31 138.15 135.29 123.18 C 137.28 123.18 139.27 123.18 141.25 128.19 C 143.24 139.95 145.23 186.85 147.22 193.73 C 149.20 193.73 151.19 175.87 153.18 169.46 C 155.16 163.05 157.15 155.26 159.14 155.26 C 161.12 159.31 163.11 193.73 165.10 193.73 C 167.08 188.38 169.07 128.53 171.06 123.18 C 173.05 123.18 175.03 157.20 177.02 161.65 C 179.01 161.65 180.99 157.34 182.98 149.86 C 184.97 142.39 186.95 116.80 188.94 116.80 C 190.93 116.80 192.92 149.86 194.90 149.86 C 196.89 148.07 198.88 113.31 200.86 106.00 C 202.85 106.00 204.84 106.00 206.82 106.00 C 208.81 106.00 210.80 106.00 212.78 106.00 C 214.77 115.27 216.76 156.42 218.75 161.65 C 220.73 161.65 222.72 144.16 224.71 137.38 C 226.69 130.59 228.68 120.92 230.67 120.92 C 232.65 123.00 234.64 141.77 236.63 149.86 C 238.61 157.95 240.60 158.10 242.59 169.46 C 244.58 180.82 246.56 218.00 248.55 218.00 C 250.54 216.70 252.52 161.65 254.51 161.65 C 256.50 161.65 258.48 208.61 260.47 218.00 C 262.46 218.00 264.44 218.00 266.43 218.00 C 268.42 211.59 270.41 179.53 272.39 179.53 C 274.38 179.53 276.37 218.00 278.35 218.00 C 280.34 210.97 282.33 141.42 284.31 137.38 C 286.30 137.38 288.29 188.38 290.27 193.73 C 292.26 193.73 294.25 177.55 296.24 169.46 C 298.22 161.37 300.21 154.28 302.20 145.19 C 304.18 136.10 306.17 120.25 308.16 114.90 C 310.14 113.11 312.13 114.59 314.12 113.11 C 316.10 111.62 318.09 107.18 320.08 106.00 C 322.07 106.00 324.05 106.00 326.04 106.00 C 328.03 106.00 331.01 106.00 332.00 106.00 L 332.00 218 L 28.00 218 Z" fill="#32D6E2" opacity="0.055"/><path id="history-wave" data-week-count="52" d="M 28.00 218.00 C 28.99 218.00 31.97 218.00 33.96 218.00 C 35.95 218.00 37.93 218.00 39.92 218.00 C 41.91 218.00 43.90 218.00 45.88 218.00 C 47.87 218.00 49.86 218.00 51.84 218.00 C 53.83 218.00 55.82 218.00 57.80 218.00 C 59.79 218.00 61.78 218.00 63.76 218.00 C 65.75 218.00 67.74 218.00 69.73 218.00 C 71.71 218.00 73.70 218.00 75.69 218.00 C 77.67 218.00 79.66 218.00 81.65 218.00 C 83.63 218.00 85.62 218.00 87.61 218.00 C 89.59 218.00 91.58 218.00 93.57 218.00 C 95.56 218.00 97.54 218.00 99.53 218.00 C 101.52 218.00 103.50 218.00 105.49 218.00 C 107.48 218.00 109.46 218.00 111.45 218.00 C 113.44 218.00 115.42 218.00 117.41 218.00 C 119.40 218.00 121.39 218.00 123.37 218.00 C 125.36 218.00 127.35 218.00 129.33 218.00 C 131.32 202.20 133.31 138.15 135.29 123.18 C 137.28 123.18 139.27 123.18 141.25 128.19 C 143.24 139.95 145.23 186.85 147.22 193.73 C 149.20 193.73 151.19 175.87 153.18 169.46 C 155.16 163.05 157.15 155.26 159.14 155.26 C 161.12 159.31 163.11 193.73 165.10 193.73 C 167.08 188.38 169.07 128.53 171.06 123.18 C 173.05 123.18 175.03 157.20 177.02 161.65 C 179.01 161.65 180.99 157.34 182.98 149.86 C 184.97 142.39 186.95 116.80 188.94 116.80 C 190.93 116.80 192.92 149.86 194.90 149.86 C 196.89 148.07 198.88 113.31 200.86 106.00 C 202.85 106.00 204.84 106.00 206.82 106.00 C 208.81 106.00 210.80 106.00 212.78 106.00 C 214.77 115.27 216.76 156.42 218.75 161.65 C 220.73 161.65 222.72 144.16 224.71 137.38 C 226.69 130.59 228.68 120.92 230.67 120.92 C 232.65 123.00 234.64 141.77 236.63 149.86 C 238.61 157.95 240.60 158.10 242.59 169.46 C 244.58 180.82 246.56 218.00 248.55 218.00 C 250.54 216.70 252.52 161.65 254.51 161.65 C 256.50 161.65 258.48 208.61 260.47 218.00 C 262.46 218.00 264.44 218.00 266.43 218.00 C 268.42 211.59 270.41 179.53 272.39 179.53 C 274.38 179.53 276.37 218.00 278.35 218.00 C 280.34 210.97 282.33 141.42 284.31 137.38 C 286.30 137.38 288.29 188.38 290.27 193.73 C 292.26 193.73 294.25 177.55 296.24 169.46 C 298.22 161.37 300.21 154.28 302.20 145.19 C 304.18 136.10 306.17 120.25 308.16 114.90 C 310.14 113.11 312.13 114.59 314.12 113.11 C 316.10 111.62 318.09 107.18 320.08 106.00 C 322.07 106.00 324.05 106.00 326.04 106.00 C 328.03 106.00 331.01 106.00 332.00 106.00" fill="none" stroke="#32D6E2" stroke-width="2" stroke-linecap="round" stroke-linejoin="round"/><circle class="weekly-point" data-week="0" data-total="0" data-active-days="0" cx="28.00" cy="218.00" r="1.6" fill="#32D6E2" opacity="0.5"/><circle class="weekly-point" data-week="1" data-total="0" data-active-days="0" cx="33.96" cy="218.00" r="1.6" fill="#32D6E2" opacity="0.5"/><circle class="weekly-point" data-week="2" data-total="0" data-active-days="0" cx="39.92" cy="218.00" r="1.6" fill="#32D6E2" opacity="0.5"/><circle class="weekly-point" data-week="3" data-total="0" data-active-days="0" cx="45.88" cy="218.00" r="1.6" fill="#32D6E2" opacity="0.5"/><circle class="weekly-point" data-week="4" data-total="0" data-active-days="0" cx="51.84" cy="218.00" r="1.6" fill="#32D6E2" opacity="0.5"/><circle class="weekly-point" data-week="5" data-total="0" data-active-days="0" cx="57.80" cy="218.00" r="1.6" fill="#32D6E2" opacity="0.5"/><circle class="weekly-point" data-week="6" data-total="0" data-active-days="0" cx="63.76" cy="218.00" r="1.6" fill="#32D6E2" opacity="0.5"/><circle class="weekly-point" data-week="7" data-total="0" data-active-days="0" cx="69.73" cy="218.00" r="1.6" fill="#32D6E2" opacity="0.5"/><circle class="weekly-point" data-week="8" data-total="0" data-active-days="0" cx="75.69" cy="218.00" r="1.6" fill="#32D6E2" opacity="0.5"/><circle class="weekly-point" data-week="9" data-total="0" data-active-days="0" cx="81.65" cy="218.00" r="1.6" fill="#32D6E2" opacity="0.5"/><circle class="weekly-point" data-week="10" data-total="0" data-active-days="0" cx="87.61" cy="218.00" r="1.6" fill="#32D6E2" opacity="0.5"/><circle class="weekly-point" data-week="11" data-total="0" data-active-days="0" cx="93.57" cy="218.00" r="1.6" fill="#32D6E2" opacity="0.5"/><circle class="weekly-point" data-week="12" data-total="0" data-active-days="0" cx="99.53" cy="218.00" r="1.6" fill="#32D6E2" opacity="0.5"/><circle class="weekly-point" data-week="13" data-total="0" data-active-days="0" cx="105.49" cy="218.00" r="1.6" fill="#32D6E2" opacity="0.5"/><circle class="weekly-point" data-week="14" data-total="0" data-active-days="0" cx="111.45" cy="218.00" r="1.6" fill="#32D6E2" opacity="0.5"/><circle class="weekly-point" data-week="15" data-total="0" data-active-days="0" cx="117.41" cy="218.00" r="1.6" fill="#32D6E2" opacity="0.5"/><circle class="weekly-point" data-week="16" data-total="0" data-active-days="0" cx="123.37" cy="218.00" r="1.6" fill="#32D6E2" opacity="0.5"/><circle class="weekly-point" data-week="17" data-total="0" data-active-days="0" cx="129.33" cy="218.00" r="1.6" fill="#32D6E2" opacity="0.5"/><circle class="weekly-point" data-week="18" data-total="14" data-active-days="3" cx="135.29" cy="123.18" r="1.6" fill="#32D6E2" opacity="0.5"/><circle class="weekly-point" data-week="19" data-total="12" data-active-days="2" cx="141.25" cy="128.19" r="1.6" fill="#32D6E2" opacity="0.5"/><circle class="weekly-point" data-week="20" data-total="1" data-active-days="1" cx="147.22" cy="193.73" r="1.6" fill="#32D6E2" opacity="0.5"/><circle class="weekly-point" data-week="21" data-total="3" data-active-days="3" cx="153.18" cy="169.46" r="1.6" fill="#32D6E2" opacity="0.5"/><circle class="weekly-point" data-week="22" data-total="5" data-active-days="3" cx="159.14" cy="155.26" r="1.6" fill="#32D6E2" opacity="0.5"/><circle class="weekly-point" data-week="23" data-total="1" data-active-days="1" cx="165.10" cy="193.73" r="1.6" fill="#32D6E2" opacity="0.5"/><circle class="weekly-point" data-week="24" data-total="14" data-active-days="5" cx="171.06" cy="123.18" r="1.6" fill="#32D6E2" opacity="0.5"/><circle class="weekly-point" data-week="25" data-total="4" data-active-days="2" cx="177.02" cy="161.65" r="1.6" fill="#32D6E2" opacity="0.5"/><circle class="weekly-point" data-week="26" data-total="6" data-active-days="3" cx="182.98" cy="149.86" r="1.6" fill="#32D6E2" opacity="0.5"/><circle class="weekly-point" data-week="27" data-total="17" data-active-days="6" cx="188.94" cy="116.80" r="1.6" fill="#32D6E2" opacity="0.5"/><circle class="weekly-point" data-week="28" data-total="6" data-active-days="3" cx="194.90" cy="149.86" r="1.6" fill="#32D6E2" opacity="0.5"/><circle class="weekly-point" data-week="29" data-total="27" data-active-days="5" cx="200.86" cy="106.00" r="1.6" fill="#32D6E2" opacity="0.5"/><circle class="weekly-point" data-week="30" data-total="24" data-active-days="6" cx="206.82" cy="106.00" r="1.6" fill="#32D6E2" opacity="0.5"/><circle class="weekly-point" data-week="31" data-total="33" data-active-days="4" cx="212.78" cy="106.00" r="1.6" fill="#32D6E2" opacity="0.5"/><circle class="weekly-point" data-week="32" data-total="4" data-active-days="2" cx="218.75" cy="161.65" r="1.6" fill="#32D6E2" opacity="0.5"/><circle class="weekly-point" data-week="33" data-total="9" data-active-days="4" cx="224.71" cy="137.38" r="1.6" fill="#32D6E2" opacity="0.5"/><circle class="weekly-point" data-week="34" data-total="15" data-active-days="3" cx="230.67" cy="120.92" r="1.6" fill="#32D6E2" opacity="0.5"/><circle class="weekly-point" data-week="35" data-total="6" data-active-days="2" cx="236.63" cy="149.86" r="1.6" fill="#32D6E2" opacity="0.5"/><circle class="weekly-point" data-week="36" data-total="3" data-active-days="3" cx="242.59" cy="169.46" r="1.6" fill="#32D6E2" opacity="0.5"/><circle class="weekly-point" data-week="37" data-total="0" data-active-days="0" cx="248.55" cy="218.00" r="1.6" fill="#32D6E2" opacity="0.5"/><circle class="weekly-point" data-week="38" data-total="4" data-active-days="2" cx="254.51" cy="161.65" r="1.6" fill="#32D6E2" opacity="0.5"/><circle class="weekly-point" data-week="39" data-total="0" data-active-days="0" cx="260.47" cy="218.00" r="1.6" fill="#32D6E2" opacity="0.5"/><circle class="weekly-point" data-week="40" data-total="0" data-active-days="0" cx="266.43" cy="218.00" r="1.6" fill="#32D6E2" opacity="0.5"/><circle class="weekly-point" data-week="41" data-total="2" data-active-days="1" cx="272.39" cy="179.53" r="1.6" fill="#32D6E2" opacity="0.5"/><circle class="weekly-point" data-week="42" data-total="0" data-active-days="0" cx="278.35" cy="218.00" r="1.6" fill="#32D6E2" opacity="0.5"/><circle class="weekly-point" data-week="43" data-total="9" data-active-days="2" cx="284.31" cy="137.38" r="1.6" fill="#32D6E2" opacity="0.5"/><circle class="weekly-point" data-week="44" data-total="1" data-active-days="1" cx="290.27" cy="193.73" r="1.6" fill="#32D6E2" opacity="0.5"/><circle class="weekly-point" data-week="45" data-total="3" data-active-days="3" cx="296.24" cy="169.46" r="1.6" fill="#32D6E2" opacity="0.5"/><circle class="weekly-point" data-week="46" data-total="7" data-active-days="3" cx="302.20" cy="145.19" r="1.6" fill="#32D6E2" opacity="0.5"/><circle class="weekly-point" data-week="47" data-total="18" data-active-days="4" cx="308.16" cy="114.90" r="1.6" fill="#32D6E2" opacity="0.5"/><circle class="weekly-point" data-week="48" data-total="19" data-active-days="3" cx="314.12" cy="113.11" r="1.6" fill="#32D6E2" opacity="0.5"/><circle class="weekly-point" data-week="49" data-total="38" data-active-days="5" cx="320.08" cy="106.00" r="1.6" fill="#32D6E2" opacity="0.5"/><circle class="weekly-point" data-week="50" data-total="86" data-active-days="6" cx="326.04" cy="106.00" r="1.6" fill="#32D6E2" opacity="0.5"/><circle class="weekly-point" data-week="51" data-total="69" data-active-days="6" cx="332.00" cy="106.00" r="1.6" fill="#32D6E2" opacity="0.5"/><g id="history-peak-marker"><circle cx="326.04" cy="106.00" r="4" fill="#080B10" stroke="#32D6E2" stroke-width="1.4"/><text class="mono signal" x="320.04" y="93.00" font-size="8" text-anchor="end">PEAK 86</text></g><g id="history-current-marker"><line x1="332.00" y1="106.00" x2="332.00" y2="218" stroke="#1B7D86" stroke-dasharray="2 4"/><text class="mono muted" x="332.00" y="260" font-size="8" text-anchor="end">CURRENT</text></g></g><line id="history-scan-front" class="motion" x1="28.00" y1="70" x2="28.00" y2="221" stroke="#32D6E2" stroke-width="1.2" opacity="0.72" filter="url(#history-scan-glow)">
              <animate attributeName="x1" values="28.00;332.00;332.00;28.00;28.00" keyTimes="0;0.35;0.85;0.97;1" dur="10s" repeatCount="indefinite" calcMode="linear"/>
              <animate attributeName="x2" values="28.00;332.00;332.00;28.00;28.00" keyTimes="0;0.35;0.85;0.97;1" dur="10s" repeatCount="indefinite" calcMode="linear"/>
              <animate attributeName="opacity" values="0.72;0;0.72;0;0" keyTimes="0;0.35;0.85;0.97;1" dur="10s" repeatCount="indefinite" calcMode="discrete"/>
            </line></svg>
