<svg xmlns="http://www.w3.org/2000/svg" width="100%" viewBox="0 0 360 300" role="img" aria-labelledby="signal-title signal-description">
  <title id="signal-title">Makaren Signal history</title>
  <desc id="signal-description">A 52-week contribution waveform with peak and current-week markers.</desc>
  <style>
      :root { color-scheme: dark; }
      .sans { font-family: -apple-system, BlinkMacSystemFont, 'Segoe UI', sans-serif; }
      .mono { font-family: ui-monospace, SFMono-Regular, Consolas, 'Liberation Mono', monospace; }
      .label { fill: #7D8590; font-size: 11px; letter-spacing: 2px; }
      .copy { fill: #E6EDF3; }
      .muted { fill: #7D8590; }
      .signal { fill: #32D6E2; }
      .line { stroke: #26303B; }
      .final-opacity { opacity: var(--final-opacity, 1); }
      .reveal { animation: reveal var(--reveal-duration, .32s) ease-out var(--reveal-delay, 0s) both; }
      .draw { animation: draw var(--draw-duration, 1.5s) ease-out var(--draw-delay, 0s) both; }
      .connection { vector-effect: non-scaling-stroke; }
      @keyframes reveal { from { opacity: 0; } to { opacity: var(--final-opacity, 1); } }
      @keyframes draw { from { stroke-dashoffset: 1; } to { stroke-dashoffset: 0; } }
      @media (prefers-reduced-motion: reduce) {
        .motion { display: none !important; }
        .reveal { animation: none !important; opacity: var(--final-opacity, 1) !important; }
        .draw { animation: none !important; stroke-dashoffset: 0 !important; }
      }

      .motion { display: none !important; }
      .reveal { animation: none !important; opacity: var(--final-opacity, 1) !important; }
      .draw { animation: none !important; stroke-dashoffset: 0 !important; }

    </style>
  <rect width="360" height="300" fill="#080B10" rx="12"/>
<g id="history-static"><text class="sans copy" x="24" y="46" font-size="23" font-weight="650" letter-spacing="1">SIGNAL HISTORY</text><text class="mono muted" x="336" y="68" font-size="9" text-anchor="end" letter-spacing="1">52 WEEKS / ROBUST LOG SCALE</text><line id="history-baseline" x1="28.00" y1="218" x2="332.00" y2="218" stroke="#26303B"/><line class="month-tick" x1="28.00" y1="223" x2="28.00" y2="228" stroke="#26303B"/><text class="mono muted month-label" x="28.00" y="244" font-size="8">JUL</text><line class="month-tick" x1="33.96" y1="223" x2="33.96" y2="228" stroke="#26303B"/><line class="month-tick" x1="63.76" y1="223" x2="63.76" y2="228" stroke="#26303B"/><text class="mono muted month-label" x="63.76" y="244" font-size="8">SEP</text><line class="month-tick" x1="87.61" y1="223" x2="87.61" y2="228" stroke="#26303B"/><line class="month-tick" x1="111.45" y1="223" x2="111.45" y2="228" stroke="#26303B"/><text class="mono muted month-label" x="111.45" y="244" font-size="8">NOV</text><line class="month-tick" x1="141.25" y1="223" x2="141.25" y2="228" stroke="#26303B"/><line class="month-tick" x1="165.10" y1="223" x2="165.10" y2="228" stroke="#26303B"/><text class="mono muted month-label" x="165.10" y="244" font-size="8">JAN</text><line class="month-tick" x1="194.90" y1="223" x2="194.90" y2="228" stroke="#26303B"/><line class="month-tick" x1="218.75" y1="223" x2="218.75" y2="228" stroke="#26303B"/><text class="mono muted month-label" x="218.75" y="244" font-size="8">MAR</text><line class="month-tick" x1="242.59" y1="223" x2="242.59" y2="228" stroke="#26303B"/><line class="month-tick" x1="266.43" y1="223" x2="266.43" y2="228" stroke="#26303B"/><text class="mono muted month-label" x="266.43" y="244" font-size="8">MAY</text><line class="month-tick" x1="296.24" y1="223" x2="296.24" y2="228" stroke="#26303B"/><line class="month-tick" x1="320.08" y1="223" x2="320.08" y2="228" stroke="#26303B"/><text class="mono muted month-label" x="320.08" y="244" font-size="8">JUL</text></g><g id="history-data" data-animation="cyclic-reveal" data-build-duration="3.5s" data-hold-duration="5.0s" data-collapse-duration="1.2s" data-pause-duration="0.3s" data-cycle="10.0s"><path id="history-area" d="M 28.00 218.00 C 28.99 218.00 31.97 218.00 33.96 218.00 C 35.95 218.00 37.93 218.00 39.92 218.00 C 41.91 218.00 43.90 218.00 45.88 218.00 C 47.87 218.00 49.86 218.00 51.84 218.00 C 53.83 218.00 55.82 218.00 57.80 218.00 C 59.79 218.00 61.78 218.00 63.76 218.00 C 65.75 218.00 67.74 218.00 69.73 218.00 C 71.71 218.00 73.70 218.00 75.69 218.00 C 77.67 218.00 79.66 218.00 81.65 218.00 C 83.63 218.00 85.62 218.00 87.61 218.00 C 89.59 218.00 91.58 218.00 93.57 218.00 C 95.56 218.00 97.54 218.00 99.53 218.00 C 101.52 218.00 103.50 218.00 105.49 218.00 C 107.48 218.00 109.46 218.00 111.45 218.00 C 113.44 218.00 115.42 218.00 117.41 218.00 C 119.40 218.00 121.39 218.00 123.37 218.00 C 125.36 218.00 127.35 218.00 129.33 218.00 C 131.32 199.33 133.31 106.00 135.29 106.00 C 137.28 106.00 139.27 205.61 141.25 218.00 C 143.24 218.00 145.23 189.56 147.22 180.37 C 149.20 171.18 151.19 164.51 153.18 162.87 C 155.16 162.87 157.15 170.51 159.14 170.51 C 161.12 170.51 163.11 170.02 165.10 162.87 C 167.08 155.72 169.07 127.60 171.06 127.60 C 173.05 128.87 175.03 167.32 177.02 170.51 C 179.01 170.51 180.99 154.68 182.98 146.77 C 184.97 138.85 186.95 123.70 188.94 123.02 C 190.93 123.02 192.92 142.73 194.90 142.73 C 196.89 139.90 198.88 108.10 200.86 106.00 C 202.85 106.00 204.84 130.14 206.82 130.14 C 208.81 130.14 210.80 106.00 212.78 106.00 C 214.77 114.37 216.76 175.89 218.75 180.37 C 220.73 180.37 222.72 140.79 224.71 132.88 C 226.69 132.88 228.68 132.88 230.67 132.88 C 232.65 135.96 234.64 145.07 236.63 151.34 C 238.61 157.61 240.60 165.67 242.59 170.51 C 244.58 175.35 246.56 178.72 248.55 180.37 C 250.54 180.37 252.52 180.37 254.51 180.37 C 256.50 186.64 258.48 211.73 260.47 218.00 C 262.46 218.00 264.44 218.00 266.43 218.00 C 268.42 211.73 270.41 180.37 272.39 180.37 C 274.38 180.37 276.37 218.00 278.35 218.00 C 280.34 211.13 282.33 147.04 284.31 139.12 C 286.30 139.12 288.29 161.32 290.27 170.51 C 292.26 179.70 294.25 194.26 296.24 194.26 C 298.22 186.71 300.21 135.46 302.20 125.23 C 304.18 125.23 306.17 132.88 308.16 132.88 C 310.14 131.24 312.13 119.86 314.12 115.38 C 316.10 110.90 318.09 107.56 320.08 106.00 C 322.07 106.00 324.05 106.00 326.04 106.00 C 328.03 106.00 331.01 106.00 332.00 106.00 L 332.00 218 L 28.00 218 Z" fill="#32D6E2" opacity="0.055"/><path id="history-wave" data-week-count="52" d="M 28.00 218.00 C 28.99 218.00 31.97 218.00 33.96 218.00 C 35.95 218.00 37.93 218.00 39.92 218.00 C 41.91 218.00 43.90 218.00 45.88 218.00 C 47.87 218.00 49.86 218.00 51.84 218.00 C 53.83 218.00 55.82 218.00 57.80 218.00 C 59.79 218.00 61.78 218.00 63.76 218.00 C 65.75 218.00 67.74 218.00 69.73 218.00 C 71.71 218.00 73.70 218.00 75.69 218.00 C 77.67 218.00 79.66 218.00 81.65 218.00 C 83.63 218.00 85.62 218.00 87.61 218.00 C 89.59 218.00 91.58 218.00 93.57 218.00 C 95.56 218.00 97.54 218.00 99.53 218.00 C 101.52 218.00 103.50 218.00 105.49 218.00 C 107.48 218.00 109.46 218.00 111.45 218.00 C 113.44 218.00 115.42 218.00 117.41 218.00 C 119.40 218.00 121.39 218.00 123.37 218.00 C 125.36 218.00 127.35 218.00 129.33 218.00 C 131.32 199.33 133.31 106.00 135.29 106.00 C 137.28 106.00 139.27 205.61 141.25 218.00 C 143.24 218.00 145.23 189.56 147.22 180.37 C 149.20 171.18 151.19 164.51 153.18 162.87 C 155.16 162.87 157.15 170.51 159.14 170.51 C 161.12 170.51 163.11 170.02 165.10 162.87 C 167.08 155.72 169.07 127.60 171.06 127.60 C 173.05 128.87 175.03 167.32 177.02 170.51 C 179.01 170.51 180.99 154.68 182.98 146.77 C 184.97 138.85 186.95 123.70 188.94 123.02 C 190.93 123.02 192.92 142.73 194.90 142.73 C 196.89 139.90 198.88 108.10 200.86 106.00 C 202.85 106.00 204.84 130.14 206.82 130.14 C 208.81 130.14 210.80 106.00 212.78 106.00 C 214.77 114.37 216.76 175.89 218.75 180.37 C 220.73 180.37 222.72 140.79 224.71 132.88 C 226.69 132.88 228.68 132.88 230.67 132.88 C 232.65 135.96 234.64 145.07 236.63 151.34 C 238.61 157.61 240.60 165.67 242.59 170.51 C 244.58 175.35 246.56 178.72 248.55 180.37 C 250.54 180.37 252.52 180.37 254.51 180.37 C 256.50 186.64 258.48 211.73 260.47 218.00 C 262.46 218.00 264.44 218.00 266.43 218.00 C 268.42 211.73 270.41 180.37 272.39 180.37 C 274.38 180.37 276.37 218.00 278.35 218.00 C 280.34 211.13 282.33 147.04 284.31 139.12 C 286.30 139.12 288.29 161.32 290.27 170.51 C 292.26 179.70 294.25 194.26 296.24 194.26 C 298.22 186.71 300.21 135.46 302.20 125.23 C 304.18 125.23 306.17 132.88 308.16 132.88 C 310.14 131.24 312.13 119.86 314.12 115.38 C 316.10 110.90 318.09 107.56 320.08 106.00 C 322.07 106.00 324.05 106.00 326.04 106.00 C 328.03 106.00 331.01 106.00 332.00 106.00" fill="none" stroke="#32D6E2" stroke-width="2" stroke-linecap="round" stroke-linejoin="round"/><circle class="weekly-point" data-week="0" data-total="0" data-active-days="0" cx="28.00" cy="218.00" r="1.6" fill="#32D6E2" opacity="0.5"/><circle class="weekly-point" data-week="1" data-total="0" data-active-days="0" cx="33.96" cy="218.00" r="1.6" fill="#32D6E2" opacity="0.5"/><circle class="weekly-point" data-week="2" data-total="0" data-active-days="0" cx="39.92" cy="218.00" r="1.6" fill="#32D6E2" opacity="0.5"/><circle class="weekly-point" data-week="3" data-total="0" data-active-days="0" cx="45.88" cy="218.00" r="1.6" fill="#32D6E2" opacity="0.5"/><circle class="weekly-point" data-week="4" data-total="0" data-active-days="0" cx="51.84" cy="218.00" r="1.6" fill="#32D6E2" opacity="0.5"/><circle class="weekly-point" data-week="5" data-total="0" data-active-days="0" cx="57.80" cy="218.00" r="1.6" fill="#32D6E2" opacity="0.5"/><circle class="weekly-point" data-week="6" data-total="0" data-active-days="0" cx="63.76" cy="218.00" r="1.6" fill="#32D6E2" opacity="0.5"/><circle class="weekly-point" data-week="7" data-total="0" data-active-days="0" cx="69.73" cy="218.00" r="1.6" fill="#32D6E2" opacity="0.5"/><circle class="weekly-point" data-week="8" data-total="0" data-active-days="0" cx="75.69" cy="218.00" r="1.6" fill="#32D6E2" opacity="0.5"/><circle class="weekly-point" data-week="9" data-total="0" data-active-days="0" cx="81.65" cy="218.00" r="1.6" fill="#32D6E2" opacity="0.5"/><circle class="weekly-point" data-week="10" data-total="0" data-active-days="0" cx="87.61" cy="218.00" r="1.6" fill="#32D6E2" opacity="0.5"/><circle class="weekly-point" data-week="11" data-total="0" data-active-days="0" cx="93.57" cy="218.00" r="1.6" fill="#32D6E2" opacity="0.5"/><circle class="weekly-point" data-week="12" data-total="0" data-active-days="0" cx="99.53" cy="218.00" r="1.6" fill="#32D6E2" opacity="0.5"/><circle class="weekly-point" data-week="13" data-total="0" data-active-days="0" cx="105.49" cy="218.00" r="1.6" fill="#32D6E2" opacity="0.5"/><circle class="weekly-point" data-week="14" data-total="0" data-active-days="0" cx="111.45" cy="218.00" r="1.6" fill="#32D6E2" opacity="0.5"/><circle class="weekly-point" data-week="15" data-total="0" data-active-days="0" cx="117.41" cy="218.00" r="1.6" fill="#32D6E2" opacity="0.5"/><circle class="weekly-point" data-week="16" data-total="0" data-active-days="0" cx="123.37" cy="218.00" r="1.6" fill="#32D6E2" opacity="0.5"/><circle class="weekly-point" data-week="17" data-total="0" data-active-days="0" cx="129.33" cy="218.00" r="1.6" fill="#32D6E2" opacity="0.5"/><circle class="weekly-point" data-week="18" data-total="26" data-active-days="5" cx="135.29" cy="106.00" r="1.6" fill="#32D6E2" opacity="0.5"/><circle class="weekly-point" data-week="19" data-total="0" data-active-days="0" cx="141.25" cy="218.00" r="1.6" fill="#32D6E2" opacity="0.5"/><circle class="weekly-point" data-week="20" data-total="2" data-active-days="2" cx="147.22" cy="180.37" r="1.6" fill="#32D6E2" opacity="0.5"/><circle class="weekly-point" data-week="21" data-total="4" data-active-days="4" cx="153.18" cy="162.87" r="1.6" fill="#32D6E2" opacity="0.5"/><circle class="weekly-point" data-week="22" data-total="3" data-active-days="1" cx="159.14" cy="170.51" r="1.6" fill="#32D6E2" opacity="0.5"/><circle class="weekly-point" data-week="23" data-total="4" data-active-days="3" cx="165.10" cy="162.87" r="1.6" fill="#32D6E2" opacity="0.5"/><circle class="weekly-point" data-week="24" data-total="13" data-active-days="4" cx="171.06" cy="127.60" r="1.6" fill="#32D6E2" opacity="0.5"/><circle class="weekly-point" data-week="25" data-total="3" data-active-days="2" cx="177.02" cy="170.51" r="1.6" fill="#32D6E2" opacity="0.5"/><circle class="weekly-point" data-week="26" data-total="7" data-active-days="3" cx="182.98" cy="146.77" r="1.6" fill="#32D6E2" opacity="0.5"/><circle class="weekly-point" data-week="27" data-total="15" data-active-days="5" cx="188.94" cy="123.02" r="1.6" fill="#32D6E2" opacity="0.5"/><circle class="weekly-point" data-week="28" data-total="8" data-active-days="4" cx="194.90" cy="142.73" r="1.6" fill="#32D6E2" opacity="0.5"/><circle class="weekly-point" data-week="29" data-total="38" data-active-days="6" cx="200.86" cy="106.00" r="1.6" fill="#32D6E2" opacity="0.5"/><circle class="weekly-point" data-week="30" data-total="12" data-active-days="5" cx="206.82" cy="130.14" r="1.6" fill="#32D6E2" opacity="0.5"/><circle class="weekly-point" data-week="31" data-total="36" data-active-days="5" cx="212.78" cy="106.00" r="1.6" fill="#32D6E2" opacity="0.5"/><circle class="weekly-point" data-week="32" data-total="2" data-active-days="1" cx="218.75" cy="180.37" r="1.6" fill="#32D6E2" opacity="0.5"/><circle class="weekly-point" data-week="33" data-total="11" data-active-days="4" cx="224.71" cy="132.88" r="1.6" fill="#32D6E2" opacity="0.5"/><circle class="weekly-point" data-week="34" data-total="11" data-active-days="2" cx="230.67" cy="132.88" r="1.6" fill="#32D6E2" opacity="0.5"/><circle class="weekly-point" data-week="35" data-total="6" data-active-days="2" cx="236.63" cy="151.34" r="1.6" fill="#32D6E2" opacity="0.5"/><circle class="weekly-point" data-week="36" data-total="3" data-active-days="3" cx="242.59" cy="170.51" r="1.6" fill="#32D6E2" opacity="0.5"/><circle class="weekly-point" data-week="37" data-total="2" data-active-days="1" cx="248.55" cy="180.37" r="1.6" fill="#32D6E2" opacity="0.5"/><circle class="weekly-point" data-week="38" data-total="2" data-active-days="1" cx="254.51" cy="180.37" r="1.6" fill="#32D6E2" opacity="0.5"/><circle class="weekly-point" data-week="39" data-total="0" data-active-days="0" cx="260.47" cy="218.00" r="1.6" fill="#32D6E2" opacity="0.5"/><circle class="weekly-point" data-week="40" data-total="0" data-active-days="0" cx="266.43" cy="218.00" r="1.6" fill="#32D6E2" opacity="0.5"/><circle class="weekly-point" data-week="41" data-total="2" data-active-days="1" cx="272.39" cy="180.37" r="1.6" fill="#32D6E2" opacity="0.5"/><circle class="weekly-point" data-week="42" data-total="0" data-active-days="0" cx="278.35" cy="218.00" r="1.6" fill="#32D6E2" opacity="0.5"/><circle class="weekly-point" data-week="43" data-total="9" data-active-days="2" cx="284.31" cy="139.12" r="1.6" fill="#32D6E2" opacity="0.5"/><circle class="weekly-point" data-week="44" data-total="3" data-active-days="3" cx="290.27" cy="170.51" r="1.6" fill="#32D6E2" opacity="0.5"/><circle class="weekly-point" data-week="45" data-total="1" data-active-days="1" cx="296.24" cy="194.26" r="1.6" fill="#32D6E2" opacity="0.5"/><circle class="weekly-point" data-week="46" data-total="14" data-active-days="5" cx="302.20" cy="125.23" r="1.6" fill="#32D6E2" opacity="0.5"/><circle class="weekly-point" data-week="47" data-total="11" data-active-days="2" cx="308.16" cy="132.88" r="1.6" fill="#32D6E2" opacity="0.5"/><circle class="weekly-point" data-week="48" data-total="19" data-active-days="3" cx="314.12" cy="115.38" r="1.6" fill="#32D6E2" opacity="0.5"/><circle class="weekly-point" data-week="49" data-total="59" data-active-days="7" cx="320.08" cy="106.00" r="1.6" fill="#32D6E2" opacity="0.5"/><circle class="weekly-point" data-week="50" data-total="89" data-active-days="6" cx="326.04" cy="106.00" r="1.6" fill="#32D6E2" opacity="0.5"/><circle class="weekly-point" data-week="51" data-total="45" data-active-days="4" cx="332.00" cy="106.00" r="1.6" fill="#32D6E2" opacity="0.5"/><g id="history-peak-marker"><circle cx="326.04" cy="106.00" r="4" fill="#080B10" stroke="#32D6E2" stroke-width="1.4"/><text class="mono signal" x="320.04" y="93.00" font-size="8" text-anchor="end">PEAK 89</text></g><g id="history-current-marker"><line x1="332.00" y1="106.00" x2="332.00" y2="218" stroke="#1B7D86" stroke-dasharray="2 4"/><text class="mono muted" x="332.00" y="260" font-size="8" text-anchor="end">CURRENT</text></g></g></svg>
