<svg xmlns="http://www.w3.org/2000/svg" width="100%" viewBox="0 0 1000 230" role="img" aria-labelledby="signal-title signal-description">
  <title id="signal-title">Makaren Signal history</title>
  <desc id="signal-description">A 52-week contribution waveform with peak and current-week markers.</desc>
  <style>
      :root { color-scheme: dark; }
      .sans { font-family: -apple-system, BlinkMacSystemFont, 'Segoe UI', sans-serif; }
      .mono { font-family: ui-monospace, SFMono-Regular, Consolas, 'Liberation Mono', monospace; }
      .label { fill: #7D8590; font-size: 11px; letter-spacing: 2px; }
      .copy { fill: #E6EDF3; }
      .muted { fill: #7D8590; }
      .signal { fill: #32D6E2; }
      .line { stroke: #26303B; }
      .final-opacity { opacity: var(--final-opacity, 1); }
      .reveal { animation: reveal var(--reveal-duration, .32s) ease-out var(--reveal-delay, 0s) both; }
      .draw { animation: draw var(--draw-duration, 1.5s) ease-out var(--draw-delay, 0s) both; }
      .connection { vector-effect: non-scaling-stroke; }
      @keyframes reveal { from { opacity: 0; } to { opacity: var(--final-opacity, 1); } }
      @keyframes draw { from { stroke-dashoffset: 1; } to { stroke-dashoffset: 0; } }
      @media (prefers-reduced-motion: reduce) {
        .motion { display: none !important; }
        .reveal { animation: none !important; opacity: var(--final-opacity, 1) !important; }
        .draw { animation: none !important; stroke-dashoffset: 0 !important; }
      }

    </style>
  <rect width="1000" height="230" fill="#080B10" rx="12"/>
<g id="history-static"><text class="sans copy" x="48" y="48" font-size="25" font-weight="650" letter-spacing="1">SIGNAL HISTORY</text><text class="mono muted" x="952" y="46" font-size="9" text-anchor="end" letter-spacing="1">52 WEEKS / ROBUST LOG SCALE</text><line id="history-baseline" x1="62.00" y1="174" x2="938.00" y2="174" stroke="#26303B"/><line class="month-tick" x1="62.00" y1="179" x2="62.00" y2="184" stroke="#26303B"/><text class="mono muted month-label" x="62.00" y="200" font-size="8">SEP</text><line class="month-tick" x1="130.71" y1="179" x2="130.71" y2="184" stroke="#26303B"/><text class="mono muted month-label" x="130.71" y="200" font-size="8">OCT</text><line class="month-tick" x1="199.41" y1="179" x2="199.41" y2="184" stroke="#26303B"/><text class="mono muted month-label" x="199.41" y="200" font-size="8">NOV</text><line class="month-tick" x1="268.12" y1="179" x2="268.12" y2="184" stroke="#26303B"/><text class="mono muted month-label" x="268.12" y="200" font-size="8">DEC</text><line class="month-tick" x1="354.00" y1="179" x2="354.00" y2="184" stroke="#26303B"/><text class="mono muted month-label" x="354.00" y="200" font-size="8">JAN</text><line class="month-tick" x1="422.71" y1="179" x2="422.71" y2="184" stroke="#26303B"/><text class="mono muted month-label" x="422.71" y="200" font-size="8">FEB</text><line class="month-tick" x1="491.41" y1="179" x2="491.41" y2="184" stroke="#26303B"/><text class="mono muted month-label" x="491.41" y="200" font-size="8">MAR</text><line class="month-tick" x1="577.29" y1="179" x2="577.29" y2="184" stroke="#26303B"/><text class="mono muted month-label" x="577.29" y="200" font-size="8">APR</text><line class="month-tick" x1="646.00" y1="179" x2="646.00" y2="184" stroke="#26303B"/><text class="mono muted month-label" x="646.00" y="200" font-size="8">MAY</text><line class="month-tick" x1="714.71" y1="179" x2="714.71" y2="184" stroke="#26303B"/><text class="mono muted month-label" x="714.71" y="200" font-size="8">JUN</text><line class="month-tick" x1="800.59" y1="179" x2="800.59" y2="184" stroke="#26303B"/><text class="mono muted month-label" x="800.59" y="200" font-size="8">JUL</text><line class="month-tick" x1="869.29" y1="179" x2="869.29" y2="184" stroke="#26303B"/><text class="mono muted month-label" x="869.29" y="200" font-size="8">AUG</text><line class="month-tick" x1="938.00" y1="179" x2="938.00" y2="184" stroke="#26303B"/><text class="mono muted month-label" x="938.00" y="200" font-size="8">SEP</text></g><defs>
              <clipPath id="history-reveal-clip" clipPathUnits="userSpaceOnUse">
                <rect id="history-reveal-window" x="62.00" y="70" width="0" height="160">
                  <animate id="history-reveal-width" attributeName="width" values="0;876.00;876.00;0;0" keyTimes="0;0.35;0.85;0.97;1" dur="10s" repeatCount="indefinite" calcMode="linear"/>
                </rect>
              </clipPath>
              <filter id="history-scan-glow" x="-100%" y="-20%" width="300%" height="140%"><feGaussianBlur stdDeviation="1.1" result="blur"/><feMerge><feMergeNode in="blur"/><feMergeNode in="SourceGraphic"/></feMerge></filter>
            </defs><g id="history-data" data-animation="cyclic-reveal" data-build-duration="3.5s" data-hold-duration="5.0s" data-collapse-duration="1.2s" data-pause-duration="0.3s" data-cycle="10.0s" clip-path="url(#history-reveal-clip)"><path id="history-area" d="M 62.00 174.00 C 64.86 174.00 73.45 174.00 79.18 174.00 C 84.90 174.00 90.63 174.00 96.35 174.00 C 102.08 174.00 107.80 174.00 113.53 174.00 C 119.25 174.00 124.98 174.00 130.71 174.00 C 136.43 174.00 142.16 174.00 147.88 174.00 C 153.61 174.00 159.33 174.00 165.06 174.00 C 170.78 174.00 176.51 174.00 182.24 174.00 C 187.96 174.00 193.69 174.00 199.41 174.00 C 205.14 174.00 210.86 174.00 216.59 174.00 C 222.31 174.00 228.04 174.00 233.76 174.00 C 239.49 171.01 245.22 170.12 250.94 156.06 C 256.67 142.01 262.39 89.69 268.12 89.69 C 273.84 92.68 279.57 164.69 285.29 174.00 C 291.02 174.00 296.75 154.54 302.47 145.57 C 308.20 136.60 313.92 120.19 319.65 120.19 C 325.37 124.93 331.10 174.00 336.82 174.00 C 342.55 171.29 348.27 111.65 354.00 103.93 C 359.73 103.93 365.45 121.94 371.18 127.64 C 376.90 133.34 382.63 138.13 388.35 138.13 C 394.08 134.47 399.80 109.21 405.53 105.71 C 411.25 105.71 416.98 117.14 422.71 117.14 C 428.43 116.06 434.16 105.06 439.88 99.21 C 445.61 93.35 451.33 82.00 457.06 82.00 C 462.78 86.07 468.51 123.65 474.24 123.65 C 479.96 123.65 485.69 82.58 491.41 82.00 C 497.14 82.00 502.86 115.57 508.59 120.19 C 514.31 120.19 520.04 109.70 525.76 109.70 C 531.49 109.70 537.22 118.44 542.94 120.19 C 548.67 120.19 554.39 120.19 560.12 120.19 C 565.84 126.17 571.57 154.04 577.29 156.06 C 583.02 156.06 588.75 132.35 594.47 132.35 C 600.20 135.34 605.92 167.06 611.65 174.00 C 617.37 174.00 623.10 174.00 628.82 174.00 C 634.55 174.00 640.27 174.00 646.00 174.00 C 651.73 169.26 657.45 153.30 663.18 145.57 C 668.90 137.84 674.63 130.62 680.35 127.64 C 686.08 127.64 691.80 127.64 697.53 127.64 C 703.25 129.38 708.98 138.13 714.71 138.13 C 720.43 138.13 726.16 134.79 731.88 127.64 C 737.61 120.48 743.33 97.83 749.06 95.22 C 754.78 95.22 760.51 111.95 766.24 111.95 C 771.96 109.75 777.69 86.99 783.41 82.00 C 789.14 82.00 794.86 82.00 800.59 82.00 C 806.31 82.00 812.04 82.00 817.76 82.00 C 823.49 83.81 829.22 92.86 834.94 92.86 C 840.67 92.86 846.39 82.00 852.12 82.00 C 857.84 83.30 863.57 98.48 869.29 100.69 C 875.02 100.69 880.75 95.22 886.47 95.22 C 892.20 99.05 897.92 123.65 903.65 123.65 C 909.37 123.07 915.10 91.76 920.82 91.76 C 926.55 97.17 935.14 145.35 938.00 156.06 L 938.00 174 L 62.00 174 Z" fill="#32D6E2" opacity="0.055"/><path id="history-wave" data-week-count="52" d="M 62.00 174.00 C 64.86 174.00 73.45 174.00 79.18 174.00 C 84.90 174.00 90.63 174.00 96.35 174.00 C 102.08 174.00 107.80 174.00 113.53 174.00 C 119.25 174.00 124.98 174.00 130.71 174.00 C 136.43 174.00 142.16 174.00 147.88 174.00 C 153.61 174.00 159.33 174.00 165.06 174.00 C 170.78 174.00 176.51 174.00 182.24 174.00 C 187.96 174.00 193.69 174.00 199.41 174.00 C 205.14 174.00 210.86 174.00 216.59 174.00 C 222.31 174.00 228.04 174.00 233.76 174.00 C 239.49 171.01 245.22 170.12 250.94 156.06 C 256.67 142.01 262.39 89.69 268.12 89.69 C 273.84 92.68 279.57 164.69 285.29 174.00 C 291.02 174.00 296.75 154.54 302.47 145.57 C 308.20 136.60 313.92 120.19 319.65 120.19 C 325.37 124.93 331.10 174.00 336.82 174.00 C 342.55 171.29 348.27 111.65 354.00 103.93 C 359.73 103.93 365.45 121.94 371.18 127.64 C 376.90 133.34 382.63 138.13 388.35 138.13 C 394.08 134.47 399.80 109.21 405.53 105.71 C 411.25 105.71 416.98 117.14 422.71 117.14 C 428.43 116.06 434.16 105.06 439.88 99.21 C 445.61 93.35 451.33 82.00 457.06 82.00 C 462.78 86.07 468.51 123.65 474.24 123.65 C 479.96 123.65 485.69 82.58 491.41 82.00 C 497.14 82.00 502.86 115.57 508.59 120.19 C 514.31 120.19 520.04 109.70 525.76 109.70 C 531.49 109.70 537.22 118.44 542.94 120.19 C 548.67 120.19 554.39 120.19 560.12 120.19 C 565.84 126.17 571.57 154.04 577.29 156.06 C 583.02 156.06 588.75 132.35 594.47 132.35 C 600.20 135.34 605.92 167.06 611.65 174.00 C 617.37 174.00 623.10 174.00 628.82 174.00 C 634.55 174.00 640.27 174.00 646.00 174.00 C 651.73 169.26 657.45 153.30 663.18 145.57 C 668.90 137.84 674.63 130.62 680.35 127.64 C 686.08 127.64 691.80 127.64 697.53 127.64 C 703.25 129.38 708.98 138.13 714.71 138.13 C 720.43 138.13 726.16 134.79 731.88 127.64 C 737.61 120.48 743.33 97.83 749.06 95.22 C 754.78 95.22 760.51 111.95 766.24 111.95 C 771.96 109.75 777.69 86.99 783.41 82.00 C 789.14 82.00 794.86 82.00 800.59 82.00 C 806.31 82.00 812.04 82.00 817.76 82.00 C 823.49 83.81 829.22 92.86 834.94 92.86 C 840.67 92.86 846.39 82.00 852.12 82.00 C 857.84 83.30 863.57 98.48 869.29 100.69 C 875.02 100.69 880.75 95.22 886.47 95.22 C 892.20 99.05 897.92 123.65 903.65 123.65 C 909.37 123.07 915.10 91.76 920.82 91.76 C 926.55 97.17 935.14 145.35 938.00 156.06" fill="none" stroke="#32D6E2" stroke-width="2" stroke-linecap="round" stroke-linejoin="round"/><circle class="weekly-point" data-week="0" data-total="0" data-active-days="0" cx="62.00" cy="174.00" r="1.6" fill="#32D6E2" opacity="0.5"/><circle class="weekly-point" data-week="1" data-total="0" data-active-days="0" cx="79.18" cy="174.00" r="1.6" fill="#32D6E2" opacity="0.5"/><circle class="weekly-point" data-week="2" data-total="0" data-active-days="0" cx="96.35" cy="174.00" r="1.6" fill="#32D6E2" opacity="0.5"/><circle class="weekly-point" data-week="3" data-total="0" data-active-days="0" cx="113.53" cy="174.00" r="1.6" fill="#32D6E2" opacity="0.5"/><circle class="weekly-point" data-week="4" data-total="0" data-active-days="0" cx="130.71" cy="174.00" r="1.6" fill="#32D6E2" opacity="0.5"/><circle class="weekly-point" data-week="5" data-total="0" data-active-days="0" cx="147.88" cy="174.00" r="1.6" fill="#32D6E2" opacity="0.5"/><circle class="weekly-point" data-week="6" data-total="0" data-active-days="0" cx="165.06" cy="174.00" r="1.6" fill="#32D6E2" opacity="0.5"/><circle class="weekly-point" data-week="7" data-total="0" data-active-days="0" cx="182.24" cy="174.00" r="1.6" fill="#32D6E2" opacity="0.5"/><circle class="weekly-point" data-week="8" data-total="0" data-active-days="0" cx="199.41" cy="174.00" r="1.6" fill="#32D6E2" opacity="0.5"/><circle class="weekly-point" data-week="9" data-total="0" data-active-days="0" cx="216.59" cy="174.00" r="1.6" fill="#32D6E2" opacity="0.5"/><circle class="weekly-point" data-week="10" data-total="0" data-active-days="0" cx="233.76" cy="174.00" r="1.6" fill="#32D6E2" opacity="0.5"/><circle class="weekly-point" data-week="11" data-total="1" data-active-days="1" cx="250.94" cy="156.06" r="1.6" fill="#32D6E2" opacity="0.5"/><circle class="weekly-point" data-week="12" data-total="25" data-active-days="4" cx="268.12" cy="89.69" r="1.6" fill="#32D6E2" opacity="0.5"/><circle class="weekly-point" data-week="13" data-total="0" data-active-days="0" cx="285.29" cy="174.00" r="1.6" fill="#32D6E2" opacity="0.5"/><circle class="weekly-point" data-week="14" data-total="2" data-active-days="2" cx="302.47" cy="145.57" r="1.6" fill="#32D6E2" opacity="0.5"/><circle class="weekly-point" data-week="15" data-total="7" data-active-days="5" cx="319.65" cy="120.19" r="1.6" fill="#32D6E2" opacity="0.5"/><circle class="weekly-point" data-week="16" data-total="0" data-active-days="0" cx="336.82" cy="174.00" r="1.6" fill="#32D6E2" opacity="0.5"/><circle class="weekly-point" data-week="17" data-total="14" data-active-days="5" cx="354.00" cy="103.93" r="1.6" fill="#32D6E2" opacity="0.5"/><circle class="weekly-point" data-week="18" data-total="5" data-active-days="3" cx="371.18" cy="127.64" r="1.6" fill="#32D6E2" opacity="0.5"/><circle class="weekly-point" data-week="19" data-total="3" data-active-days="2" cx="388.35" cy="138.13" r="1.6" fill="#32D6E2" opacity="0.5"/><circle class="weekly-point" data-week="20" data-total="13" data-active-days="5" cx="405.53" cy="105.71" r="1.6" fill="#32D6E2" opacity="0.5"/><circle class="weekly-point" data-week="21" data-total="8" data-active-days="3" cx="422.71" cy="117.14" r="1.6" fill="#32D6E2" opacity="0.5"/><circle class="weekly-point" data-week="22" data-total="17" data-active-days="5" cx="439.88" cy="99.21" r="1.6" fill="#32D6E2" opacity="0.5"/><circle class="weekly-point" data-week="23" data-total="35" data-active-days="6" cx="457.06" cy="82.00" r="1.6" fill="#32D6E2" opacity="0.5"/><circle class="weekly-point" data-week="24" data-total="6" data-active-days="4" cx="474.24" cy="123.65" r="1.6" fill="#32D6E2" opacity="0.5"/><circle class="weekly-point" data-week="25" data-total="35" data-active-days="4" cx="491.41" cy="82.00" r="1.6" fill="#32D6E2" opacity="0.5"/><circle class="weekly-point" data-week="26" data-total="7" data-active-days="3" cx="508.59" cy="120.19" r="1.6" fill="#32D6E2" opacity="0.5"/><circle class="weekly-point" data-week="27" data-total="11" data-active-days="3" cx="525.76" cy="109.70" r="1.6" fill="#32D6E2" opacity="0.5"/><circle class="weekly-point" data-week="28" data-total="7" data-active-days="2" cx="542.94" cy="120.19" r="1.6" fill="#32D6E2" opacity="0.5"/><circle class="weekly-point" data-week="29" data-total="7" data-active-days="3" cx="560.12" cy="120.19" r="1.6" fill="#32D6E2" opacity="0.5"/><circle class="weekly-point" data-week="30" data-total="1" data-active-days="1" cx="577.29" cy="156.06" r="1.6" fill="#32D6E2" opacity="0.5"/><circle class="weekly-point" data-week="31" data-total="4" data-active-days="2" cx="594.47" cy="132.35" r="1.6" fill="#32D6E2" opacity="0.5"/><circle class="weekly-point" data-week="32" data-total="0" data-active-days="0" cx="611.65" cy="174.00" r="1.6" fill="#32D6E2" opacity="0.5"/><circle class="weekly-point" data-week="33" data-total="0" data-active-days="0" cx="628.82" cy="174.00" r="1.6" fill="#32D6E2" opacity="0.5"/><circle class="weekly-point" data-week="34" data-total="0" data-active-days="0" cx="646.00" cy="174.00" r="1.6" fill="#32D6E2" opacity="0.5"/><circle class="weekly-point" data-week="35" data-total="2" data-active-days="1" cx="663.18" cy="145.57" r="1.6" fill="#32D6E2" opacity="0.5"/><circle class="weekly-point" data-week="36" data-total="5" data-active-days="1" cx="680.35" cy="127.64" r="1.6" fill="#32D6E2" opacity="0.5"/><circle class="weekly-point" data-week="37" data-total="5" data-active-days="2" cx="697.53" cy="127.64" r="1.6" fill="#32D6E2" opacity="0.5"/><circle class="weekly-point" data-week="38" data-total="3" data-active-days="3" cx="714.71" cy="138.13" r="1.6" fill="#32D6E2" opacity="0.5"/><circle class="weekly-point" data-week="39" data-total="5" data-active-days="1" cx="731.88" cy="127.64" r="1.6" fill="#32D6E2" opacity="0.5"/><circle class="weekly-point" data-week="40" data-total="20" data-active-days="6" cx="749.06" cy="95.22" r="1.6" fill="#32D6E2" opacity="0.5"/><circle class="weekly-point" data-week="41" data-total="10" data-active-days="2" cx="766.24" cy="111.95" r="1.6" fill="#32D6E2" opacity="0.5"/><circle class="weekly-point" data-week="42" data-total="35" data-active-days="4" cx="783.41" cy="82.00" r="1.6" fill="#32D6E2" opacity="0.5"/><circle class="weekly-point" data-week="43" data-total="62" data-active-days="6" cx="800.59" cy="82.00" r="1.6" fill="#32D6E2" opacity="0.5"/><circle class="weekly-point" data-week="44" data-total="88" data-active-days="7" cx="817.76" cy="82.00" r="1.6" fill="#32D6E2" opacity="0.5"/><circle class="weekly-point" data-week="45" data-total="22" data-active-days="3" cx="834.94" cy="92.86" r="1.6" fill="#32D6E2" opacity="0.5"/><circle class="weekly-point" data-week="46" data-total="53" data-active-days="5" cx="852.12" cy="82.00" r="1.6" fill="#32D6E2" opacity="0.5"/><circle class="weekly-point" data-week="47" data-total="16" data-active-days="3" cx="869.29" cy="100.69" r="1.6" fill="#32D6E2" opacity="0.5"/><circle class="weekly-point" data-week="48" data-total="20" data-active-days="5" cx="886.47" cy="95.22" r="1.6" fill="#32D6E2" opacity="0.5"/><circle class="weekly-point" data-week="49" data-total="6" data-active-days="3" cx="903.65" cy="123.65" r="1.6" fill="#32D6E2" opacity="0.5"/><circle class="weekly-point" data-week="50" data-total="23" data-active-days="6" cx="920.82" cy="91.76" r="1.6" fill="#32D6E2" opacity="0.5"/><circle class="weekly-point" data-week="51" data-total="1" data-active-days="1" cx="938.00" cy="156.06" r="1.6" fill="#32D6E2" opacity="0.5"/><g id="history-peak-marker"><circle cx="817.76" cy="82.00" r="4" fill="#080B10" stroke="#32D6E2" stroke-width="1.4"/><text class="mono signal" x="817.76" y="76.00" font-size="8" text-anchor="middle">PEAK 88</text></g><g id="history-current-marker"><line x1="938.00" y1="156.06" x2="938.00" y2="174" stroke="#1B7D86" stroke-dasharray="2 4"/><text class="mono muted" x="938.00" y="216" font-size="8" text-anchor="end">CURRENT</text></g></g><line id="history-scan-front" class="motion" x1="62.00" y1="70" x2="62.00" y2="177" stroke="#32D6E2" stroke-width="1.2" opacity="0.72" filter="url(#history-scan-glow)">
              <animate attributeName="x1" values="62.00;938.00;938.00;62.00;62.00" keyTimes="0;0.35;0.85;0.97;1" dur="10s" repeatCount="indefinite" calcMode="linear"/>
              <animate attributeName="x2" values="62.00;938.00;938.00;62.00;62.00" keyTimes="0;0.35;0.85;0.97;1" dur="10s" repeatCount="indefinite" calcMode="linear"/>
              <animate attributeName="opacity" values="0.72;0;0.72;0;0" keyTimes="0;0.35;0.85;0.97;1" dur="10s" repeatCount="indefinite" calcMode="discrete"/>
            </line></svg>
