<svg xmlns="http://www.w3.org/2000/svg" width="100%" viewBox="0 0 360 300" role="img" aria-labelledby="signal-title signal-description">
  <title id="signal-title">Makaren Signal history</title>
  <desc id="signal-description">A 52-week contribution waveform with peak and current-week markers.</desc>
  <style>
      :root { color-scheme: light; }
      .sans { font-family: -apple-system, BlinkMacSystemFont, 'Segoe UI', sans-serif; }
      .mono { font-family: ui-monospace, SFMono-Regular, Consolas, 'Liberation Mono', monospace; }
      .label { fill: #5E6B78; font-size: 11px; letter-spacing: 2px; }
      .copy { fill: #17212B; }
      .muted { fill: #5E6B78; }
      .signal { fill: #087F8C; }
      .line { stroke: #CBD5DD; }
      .final-opacity { opacity: var(--final-opacity, 1); }
      .reveal { animation: reveal var(--reveal-duration, .32s) ease-out var(--reveal-delay, 0s) both; }
      .draw { animation: draw var(--draw-duration, 1.5s) ease-out var(--draw-delay, 0s) both; }
      .connection { vector-effect: non-scaling-stroke; }
      @keyframes reveal { from { opacity: 0; } to { opacity: var(--final-opacity, 1); } }
      @keyframes draw { from { stroke-dashoffset: 1; } to { stroke-dashoffset: 0; } }
      @media (prefers-reduced-motion: reduce) {
        .motion { display: none !important; }
        .reveal { animation: none !important; opacity: var(--final-opacity, 1) !important; }
        .draw { animation: none !important; stroke-dashoffset: 0 !important; }
      }

    </style>
  <rect width="360" height="300" fill="#F7F9FB" rx="12"/>
<text class="sans copy" x="24" y="46" font-size="23" font-weight="650" letter-spacing="1">SIGNAL HISTORY</text><text class="mono muted" x="336" y="68" font-size="9" text-anchor="end" letter-spacing="1">52 WEEKS / ROBUST LOG SCALE</text><line x1="28.00" y1="218" x2="332.00" y2="218" stroke="#CBD5DD"/><path class="reveal" style="--final-opacity:0.055;--reveal-delay:0.450s;--reveal-duration:1.20s" d="M 28.00 218.00 C 28.99 218.00 31.97 218.00 33.96 218.00 C 35.95 218.00 37.93 218.00 39.92 218.00 C 41.91 218.00 43.90 218.00 45.88 218.00 C 47.87 218.00 49.86 218.00 51.84 218.00 C 53.83 218.00 55.82 218.00 57.80 218.00 C 59.79 218.00 61.78 218.00 63.76 218.00 C 65.75 218.00 67.74 218.00 69.73 218.00 C 71.71 218.00 73.70 218.00 75.69 218.00 C 77.67 218.00 79.66 218.00 81.65 218.00 C 83.63 218.00 85.62 218.00 87.61 218.00 C 89.59 218.00 91.58 218.00 93.57 218.00 C 95.56 218.00 97.54 218.00 99.53 218.00 C 101.52 218.00 103.50 218.00 105.49 218.00 C 107.48 218.00 109.46 218.00 111.45 218.00 C 113.44 218.00 115.42 218.00 117.41 218.00 C 119.40 218.00 121.39 218.00 123.37 218.00 C 125.36 218.00 127.35 218.00 129.33 218.00 C 131.32 207.45 133.31 172.89 135.29 154.69 C 137.28 136.49 139.27 108.78 141.25 108.78 C 143.24 119.33 145.23 207.96 147.22 218.00 C 149.20 218.00 151.19 180.48 153.18 169.02 C 155.16 157.56 157.15 149.24 159.14 149.24 C 161.12 157.41 163.11 218.00 165.10 218.00 C 167.08 213.13 169.07 129.51 171.06 120.03 C 173.05 120.03 175.03 152.97 177.02 161.13 C 179.01 169.02 180.99 169.02 182.98 169.02 C 184.97 161.47 186.95 119.95 188.94 115.87 C 190.93 115.87 192.92 144.52 194.90 144.52 C 196.89 142.88 198.88 112.42 200.86 106.00 C 202.85 106.00 204.84 106.00 206.82 106.00 C 208.81 106.00 210.80 106.00 212.78 106.00 C 214.77 108.34 216.76 113.61 218.75 120.03 C 220.73 126.45 222.72 144.52 224.71 144.52 C 226.69 143.83 228.68 115.87 230.67 115.87 C 232.65 124.03 234.64 188.73 236.63 193.51 C 238.61 193.51 240.60 144.52 242.59 144.52 C 244.58 144.52 246.56 190.74 248.55 193.51 C 250.54 193.51 252.52 161.13 254.51 161.13 C 256.50 165.21 258.48 208.52 260.47 218.00 C 262.46 218.00 264.44 218.00 266.43 218.00 C 268.42 218.00 270.41 218.00 272.39 218.00 C 274.38 211.53 276.37 192.74 278.35 179.18 C 280.34 165.62 282.33 136.64 284.31 136.64 C 286.30 139.03 288.29 188.11 290.27 193.51 C 292.26 193.51 294.25 176.39 296.24 169.02 C 298.22 161.64 300.21 158.72 302.20 149.24 C 304.18 139.76 306.17 118.33 308.16 112.15 C 310.14 112.15 312.13 112.15 314.12 112.15 C 316.10 111.12 318.09 107.02 320.08 106.00 C 322.07 106.00 324.05 106.00 326.04 106.00 C 328.03 106.00 331.01 106.00 332.00 106.00 L 332.00 218 L 28.00 218 Z" fill="#087F8C" opacity="0.055"/><path class="draw" style="--draw-duration:1.7s" id="history-wave" data-week-count="52" data-cycle="5.4s" d="M 28.00 218.00 C 28.99 218.00 31.97 218.00 33.96 218.00 C 35.95 218.00 37.93 218.00 39.92 218.00 C 41.91 218.00 43.90 218.00 45.88 218.00 C 47.87 218.00 49.86 218.00 51.84 218.00 C 53.83 218.00 55.82 218.00 57.80 218.00 C 59.79 218.00 61.78 218.00 63.76 218.00 C 65.75 218.00 67.74 218.00 69.73 218.00 C 71.71 218.00 73.70 218.00 75.69 218.00 C 77.67 218.00 79.66 218.00 81.65 218.00 C 83.63 218.00 85.62 218.00 87.61 218.00 C 89.59 218.00 91.58 218.00 93.57 218.00 C 95.56 218.00 97.54 218.00 99.53 218.00 C 101.52 218.00 103.50 218.00 105.49 218.00 C 107.48 218.00 109.46 218.00 111.45 218.00 C 113.44 218.00 115.42 218.00 117.41 218.00 C 119.40 218.00 121.39 218.00 123.37 218.00 C 125.36 218.00 127.35 218.00 129.33 218.00 C 131.32 207.45 133.31 172.89 135.29 154.69 C 137.28 136.49 139.27 108.78 141.25 108.78 C 143.24 119.33 145.23 207.96 147.22 218.00 C 149.20 218.00 151.19 180.48 153.18 169.02 C 155.16 157.56 157.15 149.24 159.14 149.24 C 161.12 157.41 163.11 218.00 165.10 218.00 C 167.08 213.13 169.07 129.51 171.06 120.03 C 173.05 120.03 175.03 152.97 177.02 161.13 C 179.01 169.02 180.99 169.02 182.98 169.02 C 184.97 161.47 186.95 119.95 188.94 115.87 C 190.93 115.87 192.92 144.52 194.90 144.52 C 196.89 142.88 198.88 112.42 200.86 106.00 C 202.85 106.00 204.84 106.00 206.82 106.00 C 208.81 106.00 210.80 106.00 212.78 106.00 C 214.77 108.34 216.76 113.61 218.75 120.03 C 220.73 126.45 222.72 144.52 224.71 144.52 C 226.69 143.83 228.68 115.87 230.67 115.87 C 232.65 124.03 234.64 188.73 236.63 193.51 C 238.61 193.51 240.60 144.52 242.59 144.52 C 244.58 144.52 246.56 190.74 248.55 193.51 C 250.54 193.51 252.52 161.13 254.51 161.13 C 256.50 165.21 258.48 208.52 260.47 218.00 C 262.46 218.00 264.44 218.00 266.43 218.00 C 268.42 218.00 270.41 218.00 272.39 218.00 C 274.38 211.53 276.37 192.74 278.35 179.18 C 280.34 165.62 282.33 136.64 284.31 136.64 C 286.30 139.03 288.29 188.11 290.27 193.51 C 292.26 193.51 294.25 176.39 296.24 169.02 C 298.22 161.64 300.21 158.72 302.20 149.24 C 304.18 139.76 306.17 118.33 308.16 112.15 C 310.14 112.15 312.13 112.15 314.12 112.15 C 316.10 111.12 318.09 107.02 320.08 106.00 C 322.07 106.00 324.05 106.00 326.04 106.00 C 328.03 106.00 331.01 106.00 332.00 106.00" fill="none" stroke="#087F8C" stroke-width="2" stroke-linecap="round" stroke-linejoin="round" pathLength="1" stroke-dasharray="1" stroke-dashoffset="0"/><circle class="weekly-point reveal" style="--final-opacity:0.500;--reveal-delay:0.620s;--reveal-duration:0.26s" data-week="0" data-total="0" data-active-days="0" cx="28.00" cy="218.00" r="1.6" fill="#087F8C" opacity="0.5"/><circle class="weekly-point reveal" style="--final-opacity:0.500;--reveal-delay:0.638s;--reveal-duration:0.26s" data-week="1" data-total="0" data-active-days="0" cx="33.96" cy="218.00" r="1.6" fill="#087F8C" opacity="0.5"/><circle class="weekly-point reveal" style="--final-opacity:0.500;--reveal-delay:0.656s;--reveal-duration:0.26s" data-week="2" data-total="0" data-active-days="0" cx="39.92" cy="218.00" r="1.6" fill="#087F8C" opacity="0.5"/><circle class="weekly-point reveal" style="--final-opacity:0.500;--reveal-delay:0.674s;--reveal-duration:0.26s" data-week="3" data-total="0" data-active-days="0" cx="45.88" cy="218.00" r="1.6" fill="#087F8C" opacity="0.5"/><circle class="weekly-point reveal" style="--final-opacity:0.500;--reveal-delay:0.692s;--reveal-duration:0.26s" data-week="4" data-total="0" data-active-days="0" cx="51.84" cy="218.00" r="1.6" fill="#087F8C" opacity="0.5"/><circle class="weekly-point reveal" style="--final-opacity:0.500;--reveal-delay:0.710s;--reveal-duration:0.26s" data-week="5" data-total="0" data-active-days="0" cx="57.80" cy="218.00" r="1.6" fill="#087F8C" opacity="0.5"/><circle class="weekly-point reveal" style="--final-opacity:0.500;--reveal-delay:0.728s;--reveal-duration:0.26s" data-week="6" data-total="0" data-active-days="0" cx="63.76" cy="218.00" r="1.6" fill="#087F8C" opacity="0.5"/><circle class="weekly-point reveal" style="--final-opacity:0.500;--reveal-delay:0.746s;--reveal-duration:0.26s" data-week="7" data-total="0" data-active-days="0" cx="69.73" cy="218.00" r="1.6" fill="#087F8C" opacity="0.5"/><circle class="weekly-point reveal" style="--final-opacity:0.500;--reveal-delay:0.764s;--reveal-duration:0.26s" data-week="8" data-total="0" data-active-days="0" cx="75.69" cy="218.00" r="1.6" fill="#087F8C" opacity="0.5"/><circle class="weekly-point reveal" style="--final-opacity:0.500;--reveal-delay:0.782s;--reveal-duration:0.26s" data-week="9" data-total="0" data-active-days="0" cx="81.65" cy="218.00" r="1.6" fill="#087F8C" opacity="0.5"/><circle class="weekly-point reveal" style="--final-opacity:0.500;--reveal-delay:0.800s;--reveal-duration:0.26s" data-week="10" data-total="0" data-active-days="0" cx="87.61" cy="218.00" r="1.6" fill="#087F8C" opacity="0.5"/><circle class="weekly-point reveal" style="--final-opacity:0.500;--reveal-delay:0.818s;--reveal-duration:0.26s" data-week="11" data-total="0" data-active-days="0" cx="93.57" cy="218.00" r="1.6" fill="#087F8C" opacity="0.5"/><circle class="weekly-point reveal" style="--final-opacity:0.500;--reveal-delay:0.836s;--reveal-duration:0.26s" data-week="12" data-total="0" data-active-days="0" cx="99.53" cy="218.00" r="1.6" fill="#087F8C" opacity="0.5"/><circle class="weekly-point reveal" style="--final-opacity:0.500;--reveal-delay:0.854s;--reveal-duration:0.26s" data-week="13" data-total="0" data-active-days="0" cx="105.49" cy="218.00" r="1.6" fill="#087F8C" opacity="0.5"/><circle class="weekly-point reveal" style="--final-opacity:0.500;--reveal-delay:0.872s;--reveal-duration:0.26s" data-week="14" data-total="0" data-active-days="0" cx="111.45" cy="218.00" r="1.6" fill="#087F8C" opacity="0.5"/><circle class="weekly-point reveal" style="--final-opacity:0.500;--reveal-delay:0.890s;--reveal-duration:0.26s" data-week="15" data-total="0" data-active-days="0" cx="117.41" cy="218.00" r="1.6" fill="#087F8C" opacity="0.5"/><circle class="weekly-point reveal" style="--final-opacity:0.500;--reveal-delay:0.908s;--reveal-duration:0.26s" data-week="16" data-total="0" data-active-days="0" cx="123.37" cy="218.00" r="1.6" fill="#087F8C" opacity="0.5"/><circle class="weekly-point reveal" style="--final-opacity:0.500;--reveal-delay:0.926s;--reveal-duration:0.26s" data-week="17" data-total="0" data-active-days="0" cx="129.33" cy="218.00" r="1.6" fill="#087F8C" opacity="0.5"/><circle class="weekly-point reveal" style="--final-opacity:0.500;--reveal-delay:0.944s;--reveal-duration:0.26s" data-week="18" data-total="5" data-active-days="2" cx="135.29" cy="154.69" r="1.6" fill="#087F8C" opacity="0.5"/><circle class="weekly-point reveal" style="--final-opacity:0.500;--reveal-delay:0.962s;--reveal-duration:0.26s" data-week="19" data-total="21" data-active-days="3" cx="141.25" cy="108.78" r="1.6" fill="#087F8C" opacity="0.5"/><circle class="weekly-point reveal" style="--final-opacity:0.500;--reveal-delay:0.980s;--reveal-duration:0.26s" data-week="20" data-total="0" data-active-days="0" cx="147.22" cy="218.00" r="1.6" fill="#087F8C" opacity="0.5"/><circle class="weekly-point reveal" style="--final-opacity:0.500;--reveal-delay:0.998s;--reveal-duration:0.26s" data-week="21" data-total="3" data-active-days="3" cx="153.18" cy="169.02" r="1.6" fill="#087F8C" opacity="0.5"/><circle class="weekly-point reveal" style="--final-opacity:0.500;--reveal-delay:1.016s;--reveal-duration:0.26s" data-week="22" data-total="6" data-active-days="4" cx="159.14" cy="149.24" r="1.6" fill="#087F8C" opacity="0.5"/><circle class="weekly-point reveal" style="--final-opacity:0.500;--reveal-delay:1.034s;--reveal-duration:0.26s" data-week="23" data-total="0" data-active-days="0" cx="165.10" cy="218.00" r="1.6" fill="#087F8C" opacity="0.5"/><circle class="weekly-point reveal" style="--final-opacity:0.500;--reveal-delay:1.052s;--reveal-duration:0.26s" data-week="24" data-total="15" data-active-days="6" cx="171.06" cy="120.03" r="1.6" fill="#087F8C" opacity="0.5"/><circle class="weekly-point reveal" style="--final-opacity:0.500;--reveal-delay:1.070s;--reveal-duration:0.26s" data-week="25" data-total="4" data-active-days="2" cx="177.02" cy="161.13" r="1.6" fill="#087F8C" opacity="0.5"/><circle class="weekly-point reveal" style="--final-opacity:0.500;--reveal-delay:1.088s;--reveal-duration:0.26s" data-week="26" data-total="3" data-active-days="2" cx="182.98" cy="169.02" r="1.6" fill="#087F8C" opacity="0.5"/><circle class="weekly-point reveal" style="--final-opacity:0.500;--reveal-delay:1.106s;--reveal-duration:0.26s" data-week="27" data-total="17" data-active-days="6" cx="188.94" cy="115.87" r="1.6" fill="#087F8C" opacity="0.5"/><circle class="weekly-point reveal" style="--final-opacity:0.500;--reveal-delay:1.124s;--reveal-duration:0.26s" data-week="28" data-total="7" data-active-days="3" cx="194.90" cy="144.52" r="1.6" fill="#087F8C" opacity="0.5"/><circle class="weekly-point reveal" style="--final-opacity:0.500;--reveal-delay:1.142s;--reveal-duration:0.26s" data-week="29" data-total="25" data-active-days="5" cx="200.86" cy="106.00" r="1.6" fill="#087F8C" opacity="0.5"/><circle class="weekly-point reveal" style="--final-opacity:0.500;--reveal-delay:1.160s;--reveal-duration:0.26s" data-week="30" data-total="27" data-active-days="6" cx="206.82" cy="106.00" r="1.6" fill="#087F8C" opacity="0.5"/><circle class="weekly-point reveal" style="--final-opacity:0.500;--reveal-delay:1.178s;--reveal-duration:0.26s" data-week="31" data-total="23" data-active-days="4" cx="212.78" cy="106.00" r="1.6" fill="#087F8C" opacity="0.5"/><circle class="weekly-point reveal" style="--final-opacity:0.500;--reveal-delay:1.196s;--reveal-duration:0.26s" data-week="32" data-total="15" data-active-days="3" cx="218.75" cy="120.03" r="1.6" fill="#087F8C" opacity="0.5"/><circle class="weekly-point reveal" style="--final-opacity:0.500;--reveal-delay:1.214s;--reveal-duration:0.26s" data-week="33" data-total="7" data-active-days="3" cx="224.71" cy="144.52" r="1.6" fill="#087F8C" opacity="0.5"/><circle class="weekly-point reveal" style="--final-opacity:0.500;--reveal-delay:1.232s;--reveal-duration:0.26s" data-week="34" data-total="17" data-active-days="4" cx="230.67" cy="115.87" r="1.6" fill="#087F8C" opacity="0.5"/><circle class="weekly-point reveal" style="--final-opacity:0.500;--reveal-delay:1.250s;--reveal-duration:0.26s" data-week="35" data-total="1" data-active-days="1" cx="236.63" cy="193.51" r="1.6" fill="#087F8C" opacity="0.5"/><circle class="weekly-point reveal" style="--final-opacity:0.500;--reveal-delay:1.268s;--reveal-duration:0.26s" data-week="36" data-total="7" data-active-days="3" cx="242.59" cy="144.52" r="1.6" fill="#087F8C" opacity="0.5"/><circle class="weekly-point reveal" style="--final-opacity:0.500;--reveal-delay:1.286s;--reveal-duration:0.26s" data-week="37" data-total="1" data-active-days="1" cx="248.55" cy="193.51" r="1.6" fill="#087F8C" opacity="0.5"/><circle class="weekly-point reveal" style="--final-opacity:0.500;--reveal-delay:1.304s;--reveal-duration:0.26s" data-week="38" data-total="4" data-active-days="2" cx="254.51" cy="161.13" r="1.6" fill="#087F8C" opacity="0.5"/><circle class="weekly-point reveal" style="--final-opacity:0.500;--reveal-delay:1.322s;--reveal-duration:0.26s" data-week="39" data-total="0" data-active-days="0" cx="260.47" cy="218.00" r="1.6" fill="#087F8C" opacity="0.5"/><circle class="weekly-point reveal" style="--final-opacity:0.500;--reveal-delay:1.340s;--reveal-duration:0.26s" data-week="40" data-total="0" data-active-days="0" cx="266.43" cy="218.00" r="1.6" fill="#087F8C" opacity="0.5"/><circle class="weekly-point reveal" style="--final-opacity:0.500;--reveal-delay:1.358s;--reveal-duration:0.26s" data-week="41" data-total="0" data-active-days="0" cx="272.39" cy="218.00" r="1.6" fill="#087F8C" opacity="0.5"/><circle class="weekly-point reveal" style="--final-opacity:0.500;--reveal-delay:1.376s;--reveal-duration:0.26s" data-week="42" data-total="2" data-active-days="1" cx="278.35" cy="179.18" r="1.6" fill="#087F8C" opacity="0.5"/><circle class="weekly-point reveal" style="--final-opacity:0.500;--reveal-delay:1.394s;--reveal-duration:0.26s" data-week="43" data-total="9" data-active-days="2" cx="284.31" cy="136.64" r="1.6" fill="#087F8C" opacity="0.5"/><circle class="weekly-point reveal" style="--final-opacity:0.500;--reveal-delay:1.412s;--reveal-duration:0.26s" data-week="44" data-total="1" data-active-days="1" cx="290.27" cy="193.51" r="1.6" fill="#087F8C" opacity="0.5"/><circle class="weekly-point reveal" style="--final-opacity:0.500;--reveal-delay:1.430s;--reveal-duration:0.26s" data-week="45" data-total="3" data-active-days="3" cx="296.24" cy="169.02" r="1.6" fill="#087F8C" opacity="0.5"/><circle class="weekly-point reveal" style="--final-opacity:0.500;--reveal-delay:1.448s;--reveal-duration:0.26s" data-week="46" data-total="6" data-active-days="2" cx="302.20" cy="149.24" r="1.6" fill="#087F8C" opacity="0.5"/><circle class="weekly-point reveal" style="--final-opacity:0.500;--reveal-delay:1.466s;--reveal-duration:0.26s" data-week="47" data-total="19" data-active-days="5" cx="308.16" cy="112.15" r="1.6" fill="#087F8C" opacity="0.5"/><circle class="weekly-point reveal" style="--final-opacity:0.500;--reveal-delay:1.484s;--reveal-duration:0.26s" data-week="48" data-total="19" data-active-days="3" cx="314.12" cy="112.15" r="1.6" fill="#087F8C" opacity="0.5"/><circle class="weekly-point reveal" style="--final-opacity:0.500;--reveal-delay:1.502s;--reveal-duration:0.26s" data-week="49" data-total="34" data-active-days="4" cx="320.08" cy="106.00" r="1.6" fill="#087F8C" opacity="0.5"/><circle class="weekly-point reveal" style="--final-opacity:0.500;--reveal-delay:1.520s;--reveal-duration:0.26s" data-week="50" data-total="69" data-active-days="6" cx="326.04" cy="106.00" r="1.6" fill="#087F8C" opacity="0.5"/><circle class="weekly-point reveal" style="--final-opacity:0.500;--reveal-delay:1.538s;--reveal-duration:0.26s" data-week="51" data-total="73" data-active-days="6" cx="332.00" cy="106.00" r="1.6" fill="#087F8C" opacity="0.5"/><line x1="28.00" y1="223" x2="28.00" y2="228" stroke="#CBD5DD"/><text class="mono muted" x="28.00" y="244" font-size="8">JUL</text><line x1="39.92" y1="223" x2="39.92" y2="228" stroke="#CBD5DD"/><line x1="63.76" y1="223" x2="63.76" y2="228" stroke="#CBD5DD"/><text class="mono muted" x="63.76" y="244" font-size="8">SEP</text><line x1="87.61" y1="223" x2="87.61" y2="228" stroke="#CBD5DD"/><line x1="117.41" y1="223" x2="117.41" y2="228" stroke="#CBD5DD"/><text class="mono muted" x="117.41" y="244" font-size="8">NOV</text><line x1="141.25" y1="223" x2="141.25" y2="228" stroke="#CBD5DD"/><line x1="171.06" y1="223" x2="171.06" y2="228" stroke="#CBD5DD"/><text class="mono muted" x="171.06" y="244" font-size="8">JAN</text><line x1="194.90" y1="223" x2="194.90" y2="228" stroke="#CBD5DD"/><line x1="218.75" y1="223" x2="218.75" y2="228" stroke="#CBD5DD"/><text class="mono muted" x="218.75" y="244" font-size="8">MAR</text><line x1="242.59" y1="223" x2="242.59" y2="228" stroke="#CBD5DD"/><line x1="272.39" y1="223" x2="272.39" y2="228" stroke="#CBD5DD"/><text class="mono muted" x="272.39" y="244" font-size="8">MAY</text><line x1="296.24" y1="223" x2="296.24" y2="228" stroke="#CBD5DD"/><line x1="320.08" y1="223" x2="320.08" y2="228" stroke="#CBD5DD"/><text class="mono muted" x="320.08" y="244" font-size="8">JUL</text><g class="reveal" style="--final-opacity:1.000;--reveal-delay:1.420s;--reveal-duration:0.32s"><circle cx="332.00" cy="106.00" r="4" fill="#F7F9FB" stroke="#087F8C" stroke-width="1.4"/><text class="mono signal" x="332.00" y="93.00" font-size="8" text-anchor="middle">PEAK 73</text><line x1="332.00" y1="106.00" x2="332.00" y2="218" stroke="#55B8C1" stroke-dasharray="2 4"/><text class="mono muted" x="332.00" y="260" font-size="8" text-anchor="end">CURRENT</text></g><circle class="motion" r="4.4" fill="#087F8C" opacity="0"><animateMotion id="history-pulse-motion" path="M 28.00 218.00 C 28.99 218.00 31.97 218.00 33.96 218.00 C 35.95 218.00 37.93 218.00 39.92 218.00 C 41.91 218.00 43.90 218.00 45.88 218.00 C 47.87 218.00 49.86 218.00 51.84 218.00 C 53.83 218.00 55.82 218.00 57.80 218.00 C 59.79 218.00 61.78 218.00 63.76 218.00 C 65.75 218.00 67.74 218.00 69.73 218.00 C 71.71 218.00 73.70 218.00 75.69 218.00 C 77.67 218.00 79.66 218.00 81.65 218.00 C 83.63 218.00 85.62 218.00 87.61 218.00 C 89.59 218.00 91.58 218.00 93.57 218.00 C 95.56 218.00 97.54 218.00 99.53 218.00 C 101.52 218.00 103.50 218.00 105.49 218.00 C 107.48 218.00 109.46 218.00 111.45 218.00 C 113.44 218.00 115.42 218.00 117.41 218.00 C 119.40 218.00 121.39 218.00 123.37 218.00 C 125.36 218.00 127.35 218.00 129.33 218.00 C 131.32 207.45 133.31 172.89 135.29 154.69 C 137.28 136.49 139.27 108.78 141.25 108.78 C 143.24 119.33 145.23 207.96 147.22 218.00 C 149.20 218.00 151.19 180.48 153.18 169.02 C 155.16 157.56 157.15 149.24 159.14 149.24 C 161.12 157.41 163.11 218.00 165.10 218.00 C 167.08 213.13 169.07 129.51 171.06 120.03 C 173.05 120.03 175.03 152.97 177.02 161.13 C 179.01 169.02 180.99 169.02 182.98 169.02 C 184.97 161.47 186.95 119.95 188.94 115.87 C 190.93 115.87 192.92 144.52 194.90 144.52 C 196.89 142.88 198.88 112.42 200.86 106.00 C 202.85 106.00 204.84 106.00 206.82 106.00 C 208.81 106.00 210.80 106.00 212.78 106.00 C 214.77 108.34 216.76 113.61 218.75 120.03 C 220.73 126.45 222.72 144.52 224.71 144.52 C 226.69 143.83 228.68 115.87 230.67 115.87 C 232.65 124.03 234.64 188.73 236.63 193.51 C 238.61 193.51 240.60 144.52 242.59 144.52 C 244.58 144.52 246.56 190.74 248.55 193.51 C 250.54 193.51 252.52 161.13 254.51 161.13 C 256.50 165.21 258.48 208.52 260.47 218.00 C 262.46 218.00 264.44 218.00 266.43 218.00 C 268.42 218.00 270.41 218.00 272.39 218.00 C 274.38 211.53 276.37 192.74 278.35 179.18 C 280.34 165.62 282.33 136.64 284.31 136.64 C 286.30 139.03 288.29 188.11 290.27 193.51 C 292.26 193.51 294.25 176.39 296.24 169.02 C 298.22 161.64 300.21 158.72 302.20 149.24 C 304.18 139.76 306.17 118.33 308.16 112.15 C 310.14 112.15 312.13 112.15 314.12 112.15 C 316.10 111.12 318.09 107.02 320.08 106.00 C 322.07 106.00 324.05 106.00 326.04 106.00 C 328.03 106.00 331.01 106.00 332.00 106.00" begin="2.05s;history-pulse-motion.end+4.4s" dur="1s" fill="freeze"/><animate id="history-pulse-opacity" attributeName="opacity" values="0;0.75;0" keyTimes="0;0.15;1" begin="2.05s;history-pulse-opacity.end+4.4s" dur="1s" fill="freeze"/></circle></svg>
